<svg xmlns="http://www.w3.org/2000/svg" width="1000" height="265" viewBox="0 0 1000 265" fill="none"><path fill="#000" fill-rule="evenodd" d="M271.912 224.103c-51.157 0-92.629-41.472-92.629-92.63l92.629-92.63c51.158 0 92.63 41.472 92.63 92.63 0 8.01-1.017 15.782-2.928 23.194H229.989c8.187 14.623 23.828 24.507 41.778 24.507h68.852v44.929h-68.707Zm-.145-140.622c18.068 0 33.798 10.016 41.939 24.798h-83.879c8.141-14.782 23.871-24.798 41.94-24.798Z" clip-rule="evenodd"></path><path fill="#000" fill-rule="evenodd" d="M46.564.996H.29L0 130.942v3.511c0 51.151 41.369 92.617 92.4 92.617 51.031 0 92.4-41.466 92.4-92.617 0-51.152-41.369-92.618-92.4-92.618-19.34 0-37.606 7.432-45.836 13.955V.996Zm45.69 181.151c26.36 0 47.728-21.419 47.728-47.84 0-26.422-21.368-47.84-47.728-47.84-26.359 0-47.728 21.418-47.728 47.84 0 26.421 21.369 47.84 47.728 47.84ZM999.25.996h-46.273V55.79c-8.231-6.523-26.496-13.955-45.836-13.955-51.031 0-92.4 41.466-92.4 92.618 0 49.922 39.405 90.619 88.739 92.546l96.061-96.061L999.25.996ZM859.559 134.307c0 26.421 21.368 47.84 47.728 47.84 26.359 0 47.727-21.419 47.727-47.84 0-26.422-21.368-47.84-47.727-47.84-26.36 0-47.728 21.418-47.728 47.84ZM421.066 264.916h-46.273l-.291-129.946v-3.51c0-51.152 41.369-92.618 92.4-92.618 51.031 0 92.4 41.466 92.4 92.618 0 51.151-41.369 92.617-92.4 92.617-19.341 0-37.606-7.432-45.836-13.955v54.794Zm45.69-181.15c26.36 0 47.728 21.418 47.728 47.839 0 26.422-21.368 47.841-47.728 47.841-26.359 0-47.728-21.419-47.728-47.841 0-26.421 21.369-47.84 47.728-47.84ZM699.831 224.106h46.886l.295-87.653v-3.981c0-51.708-41.918-93.625-93.626-93.625-51.707 0-93.625 41.917-93.625 93.625s41.918 93.626 93.625 93.626l46.445-46.444v44.452ZM653.534 84.259c-26.709 0-48.361 21.652-48.361 48.361 0 26.709 21.652 48.36 48.361 48.36 26.709 0 48.361-21.651 48.361-48.36s-21.652-48.361-48.361-48.361Z" clip-rule="evenodd"></path><path fill="#000" d="M759.112 84.41h45.933v139.695h-45.933V84.41Z"></path><path fill="#FF8E09" d="M758.964.996h45.965v45.965h-45.965V.996Z"></path></svg>