<svg width="73" height="42" viewBox="0 0 73 42" fill="none" xmlns="http://www.w3.org/2000/svg">
<path d="M32.5615 24.8054L34.5013 12.4027H37.5496L35.6098 24.8054H32.5615Z" fill="#074784"/>
<path d="M23.5551 12.4027H28.4047C31.453 12.4027 32.2844 14.2349 31.8687 16.349C31.5916 18.1812 30.3445 19.3087 28.6818 19.7316L31.7301 24.8054H27.7119L25.3564 19.8725L24.6636 24.8054H21.4767L23.5551 12.4027ZM26.3263 14.7987L25.772 17.8993H26.742C27.5733 17.8993 28.4047 17.1946 28.5432 16.349C28.6818 15.5034 28.1276 14.7987 27.1576 14.7987H26.3263Z" fill="#074784"/>
<path d="M46.8331 24.8054L48.773 12.4027H51.9598L50.02 24.8054H46.8331Z" fill="#074784"/>
<path d="M57.0865 15.0806L56.6709 17.1946H60.2734L59.8577 19.8725H56.2552L55.9781 22.1275H59.7192L59.3035 24.8054H52.3755L54.3153 12.4027H61.2433L60.8276 15.0806H57.0865Z" fill="#074784"/>
<path d="M17.4585 15.0806L17.1814 17.1946H20.7839L20.3682 19.8725H16.7657L16.35 22.1275H20.0911L19.6754 24.8054H12.7475L14.6873 12.4027H21.6153L21.1996 15.0806H17.4585Z" fill="#074784"/>
<path d="M42.6763 15.0806L42.3992 17.1946H45.8632L45.4475 19.8725H41.9835L41.1522 24.8054H37.9653L39.9051 12.4027H46.9717L46.556 15.0806H42.6763Z" fill="#074784"/>
<path d="M67.2014 12.4027H63.0446L61.1048 24.8054H65.2615C69.1412 24.8054 72.3281 22.1275 72.8823 18.604C73.1594 16.2081 72.051 12.4027 67.2014 12.4027ZM69.5569 18.4631C69.1412 20.7181 67.6171 22.1275 65.5387 22.1275C65.2615 22.1275 64.9844 22.1275 64.7073 22.1275L65.8158 15.0806C66.0929 15.0806 66.2315 15.0806 66.5086 15.0806C68.8641 15.0806 69.834 16.7718 69.5569 18.4631Z" fill="#074784"/>
<path d="M0 10.7114H5.8195L6.5123 19.7315C10.392 12.9664 14.2716 6.48322 18.2899 0H20.2297C16.0729 8.1745 11.9161 16.4899 7.8979 24.8054H3.60255L2.49407 14.7987C2.21695 12.4027 1.80127 11.2752 0 11.1342V10.7114Z" fill="#074784"/>
<path d="M7.89787 13.3892L12.4703 5.49659V5.21471H2.21693V5.49659L7.20507 7.75163L7.62075 13.3892H7.89787Z" fill="#F09C11"/>
<path d="M26.0492 31.7115C25.2178 31.7115 24.525 32.1343 23.9708 32.6981L24.6636 27.7652H22.5852L21.061 38.6175H23.1394L23.278 37.7719C23.6937 38.3356 24.2479 38.7585 25.0793 38.7585C26.742 38.7585 28.2661 37.2081 28.5433 35.235C28.8204 33.2618 27.7119 31.7115 26.0492 31.7115ZM26.3263 35.235C26.1877 36.0806 25.4949 36.7853 24.8022 36.7853C24.1094 36.7853 23.5551 36.0806 23.6937 35.235C23.8322 34.3893 24.525 33.6846 25.2178 33.6846C25.9106 33.6846 26.4649 34.3893 26.3263 35.235Z" fill="#074784"/>
<path d="M34.3627 31.8523H36.7183L30.4831 41.9999H28.1276L30.7602 37.7717L28.6818 31.8523H31.0373L32.1458 35.3757L34.3627 31.8523Z" fill="#074784"/>
<path d="M50.7128 38.6175H47.803L51.1285 27.7652H54.0382L50.7128 38.6175Z" fill="#074784"/>
<path d="M46.556 27.7651L42.6763 34.8121L42.3992 27.7651H37.4111V28.188C39.0738 28.188 39.3509 28.4698 39.628 29.7383L40.5979 38.6175H43.6463L49.7429 27.7651H46.556Z" fill="#074784"/>
<path d="M65.5387 37.0672L64.8459 38.6175H61.659L67.4785 27.7652H71.3582L72.3281 38.6175H70.1111H69.1412L69.0027 37.0672H65.5387ZM66.5086 34.9531H69.0027L68.7255 29.8793L66.5086 34.9531Z" fill="#074784"/>
<path d="M57.0865 38.8993C55.0081 38.8993 53.6225 38.1946 52.6526 37.6308L54.0382 35.5167C54.8696 36.0805 55.5624 36.6443 57.2251 36.6443C57.7793 36.6443 58.195 36.5033 58.4721 36.0805C58.8878 35.3758 58.3336 34.953 57.2251 34.3892L56.6709 33.8255C55.0081 32.6979 54.1768 31.5704 55.0081 29.5973C55.5624 28.3288 56.8094 27.4832 59.0264 27.4832C60.5505 27.4832 61.9361 28.1879 62.7675 28.7516L61.1048 30.5839C60.2734 29.8792 59.5806 29.5973 58.8878 29.5973C58.3336 29.5973 57.7793 29.8792 57.6408 30.161C57.3637 30.7248 57.7793 31.1476 58.6107 31.7114L59.3035 32.1342C61.3819 33.4026 61.7976 34.812 61.3819 36.0805C60.6891 38.4765 58.8878 38.8993 57.0865 38.8993Z" fill="#074784"/>
</svg>
