<svg width="52" height="52" viewBox="0 0 52 52" fill="none" xmlns="http://www.w3.org/2000/svg">
<path d="M26 52C40.3594 52 52 40.3594 52 26C52 11.6406 40.3594 0 26 0C11.6406 0 0 11.6406 0 26C0 40.3594 11.6406 52 26 52Z" fill="#4060A5"/>
<path d="M36.5801 12.8103H15.467C13.9962 12.8103 12.8101 13.9964 12.8101 15.4672V36.5329C12.8101 38.0037 13.9962 39.1899 15.467 39.1899H36.5801C38.0509 39.1899 39.2371 38.0037 39.2371 36.5329V15.4198C39.1896 13.9964 38.0035 12.8103 36.5801 12.8103ZM25.9998 20.7337C28.894 20.7337 31.2663 23.1059 31.2663 26.0001C31.2663 28.8942 28.894 31.2665 25.9998 31.2665C23.1057 31.2665 20.7334 28.8942 20.7334 26.0001C20.7334 23.1059 23.1057 20.7337 25.9998 20.7337ZM16.1312 36.5329C15.7517 36.5329 15.467 36.2482 15.467 35.8687V24.6716H18.2188C18.0765 25.0512 18.0765 25.6205 18.0765 26.0001C18.0765 30.365 21.6349 33.9234 25.9998 33.9234C30.3648 33.9234 33.9232 30.365 33.9232 26.0001C33.9232 25.6205 33.9232 25.0986 33.7809 24.6716H36.5327V35.8687C36.5327 36.2482 36.248 36.5329 35.8685 36.5329H16.1312ZM36.5801 18.741C36.5801 19.1205 36.2955 19.4052 35.9159 19.4052H33.259C32.8794 19.4052 32.5947 19.1205 32.5947 18.741V16.084C32.5947 15.7045 32.8794 15.4198 33.259 15.4198H35.9159C36.2955 15.4198 36.5801 15.7045 36.5801 16.084V18.741Z" fill="#F1F2F2"/>
</svg>
