<svg width="82" height="16" viewBox="0 0 82 16" fill="none" xmlns="http://www.w3.org/2000/svg">
<path d="M8 16C12.4183 16 16 12.4183 16 8C16 3.58172 12.4183 0 8 0C3.58172 0 0 3.58172 0 8C0 12.4183 3.58172 16 8 16Z" fill="#bcbcbc"/>
<path fill-rule="evenodd" clip-rule="evenodd" d="M10.3622 8.64669C10.261 8.58886 9.72602 8.29967 9.62481 8.25629C9.52359 8.21291 9.4513 8.19845 9.379 8.29967C9.3067 8.40088 9.07535 8.64669 9.01751 8.71899C8.94521 8.79129 8.88737 8.79129 8.7717 8.73345C8.67048 8.67561 8.30899 8.54548 7.90413 8.15507C7.58602 7.85142 7.38359 7.47547 7.32575 7.37426C7.26791 7.25858 7.32575 7.20074 7.38359 7.15737C7.44142 7.11399 7.49926 7.02723 7.5571 6.96939C7.61494 6.91155 7.6294 6.86818 7.67278 6.79588C7.71615 6.72358 7.70169 6.66574 7.67278 6.6079C7.64386 6.55007 7.44142 6.0006 7.36913 5.76925C7.28237 5.5379 7.19561 5.58128 7.12332 5.58128C7.06548 5.58128 6.97872 5.56682 6.90642 5.56682C6.83413 5.56682 6.71845 5.58128 6.60277 5.69695C6.50156 5.79817 6.19791 6.05844 6.18345 6.6079C6.16899 7.15736 6.54493 7.69237 6.58831 7.76466C6.64615 7.83696 7.31129 9.02264 8.41021 9.4998C9.50913 9.97697 9.52359 9.83237 9.72603 9.83237C9.92846 9.81791 10.3912 9.58656 10.4924 9.34075C10.5936 9.08048 10.6081 8.86359 10.5791 8.82021C10.5502 8.73345 10.4779 8.70453 10.3622 8.64669ZM8.33791 11.2639C7.60048 11.2639 6.92088 11.047 6.35696 10.671L4.96885 11.1193L5.41709 9.78899C4.98331 9.19615 4.7375 8.47318 4.7375 7.67791C4.7375 5.69696 6.35696 4.07749 8.33791 4.07749C10.3189 4.07749 11.9383 5.69696 11.9383 7.67791C11.9383 9.65886 10.3189 11.2639 8.33791 11.2639ZM8.33791 3.34006C5.9521 3.34006 4.01452 5.27763 4.01452 7.66345C4.01452 8.48764 4.24587 9.23953 4.63628 9.89021L3.85547 12.2037L6.25575 11.4374C6.8775 11.7844 7.58602 11.9724 8.35237 11.9724C10.7382 11.9724 12.6758 10.0348 12.6758 7.64899C12.6613 5.27763 10.7237 3.34006 8.33791 3.34006Z" fill="white"/>
<path d="M38 8C38 12.4183 34.4183 16 30 16C25.5817 16 22 12.4183 22 8C22 3.58172 25.5817 0 30 0C34.4183 0 38 3.58172 38 8Z" fill="#bcbcbc"/>
<path d="M31.767 9.82736C32.0131 9.15469 32.9143 6.59653 33.059 5.9256C33.2226 5.16701 32.8801 5.09295 32.1012 5.34738C31.3222 5.60182 29.3246 6.34224 28.9883 6.46158C28.6521 6.58092 27.0152 7.13108 26.6758 7.29523C25.9827 7.66703 26.3199 8.23444 27.0948 8.52906C29.4109 9.64081 28.7532 9.07428 29.7872 11.1314C30 11.6569 30.5018 12.5521 30.9824 11.8754C31.235 11.4906 31.5734 10.3563 31.767 9.82736Z" fill="white"/>
<path d="M44 8C44 3.57664 47.5766 0 52 0C56.4234 0 60 3.57664 60 8C60 12.4234 56.4234 16 52 16C47.5766 16 44 12.4234 44 8Z" fill="#bcbcbc"/>
<path d="M55.511 9.68539C55.2566 9.47333 54.9809 9.28248 54.7052 9.09163C54.1539 8.70993 53.6661 8.68872 53.2632 9.30369C53.03 9.64298 52.7119 9.66418 52.3938 9.51574C51.4819 9.09163 50.761 8.45546 50.358 7.52241C50.1672 7.11951 50.1672 6.7378 50.6125 6.44092C50.8458 6.29248 51.0578 6.10164 51.0578 5.76235C51.0366 5.31703 49.9764 3.85384 49.5522 3.7054C49.3826 3.64178 49.2129 3.64178 49.0221 3.7054C48.0254 4.04469 47.6225 4.8505 48.0254 5.80475C49.1917 8.66752 51.2487 10.6608 54.069 11.8908C54.2387 11.9544 54.4083 11.9968 54.4932 12.018C55.1293 12.018 55.8927 11.403 56.1048 10.7881C56.3168 10.1943 55.8715 9.96106 55.511 9.68539Z" fill="white"/>
<path d="M52.3511 3.89602C54.4293 4.2141 55.3623 5.18956 55.638 7.28892C55.6592 7.47977 55.5956 7.77666 55.8712 7.77666C56.1681 7.77666 56.0833 7.50098 56.0833 7.31013C56.1045 5.35921 54.3869 3.53552 52.4147 3.47191C52.2663 3.49311 51.9482 3.36588 51.927 3.70517C51.927 3.91723 52.1815 3.87481 52.3511 3.89602Z" fill="white"/>
<path d="M52.7545 4.46882C52.5636 4.44762 52.288 4.34159 52.2456 4.61726C52.2031 4.91414 52.5 4.87173 52.6697 4.91414C53.942 5.18982 54.3873 5.65634 54.5994 6.92868C54.6206 7.11953 54.5782 7.3952 54.8751 7.35279C55.1083 7.31038 55.0235 7.07712 55.0447 6.92868C55.0659 5.71996 54.0268 4.61726 52.7545 4.46882Z" fill="white"/>
<path d="M52.8813 5.46539C52.7541 5.46539 52.6268 5.48659 52.5632 5.63503C52.4996 5.84709 52.648 5.8895 52.7965 5.93191C53.3266 6.01673 53.6023 6.33482 53.6447 6.84376C53.6659 6.9922 53.7507 7.09822 53.878 7.07701C54.0688 7.05581 54.09 6.88617 54.0688 6.71652C54.1112 6.12276 53.4327 5.44418 52.8813 5.46539Z" fill="white"/>
<path d="M81.7944 8.20553C81.908 3.90078 78.5103 0.319057 74.2056 0.205527C69.9008 0.0919964 66.3191 3.48965 66.2056 7.7944C66.092 12.0992 69.4897 15.6809 73.7944 15.7944C78.0992 15.9079 81.6809 12.5103 81.7944 8.20553Z" fill="#bcbcbc"/>
<path d="M77.8999 8.61475C77.9283 8.41556 77.9425 8.20215 77.9425 8.00296C77.9425 5.81189 76.1641 4.04766 73.9872 4.04766C73.7738 4.04766 73.5746 4.06189 73.3754 4.09034C73.0055 3.8627 72.5787 3.73465 72.1234 3.73465C70.8002 3.73465 69.7332 4.80172 69.7332 6.1249C69.7332 6.58019 69.8612 7.02125 70.0888 7.37694C70.0604 7.57613 70.0462 7.78955 70.0462 7.98873C70.0462 10.1798 71.8246 11.944 74.0015 11.944C74.2149 11.944 74.4141 11.9298 74.6133 11.9013C74.9832 12.129 75.41 12.257 75.8653 12.257C77.1885 12.257 78.2555 11.19 78.2555 9.86678C78.2555 9.4115 78.1275 8.98467 77.8999 8.61475ZM75.8653 9.79564C75.6946 10.0375 75.4527 10.2225 75.1255 10.3648C74.7982 10.507 74.4283 10.5639 73.9872 10.5639C73.4608 10.5639 73.0198 10.4786 72.6783 10.2794C72.4364 10.1513 72.2372 9.96638 72.0807 9.73874C71.9242 9.51109 71.8531 9.29767 71.8531 9.08426C71.8531 8.95621 71.8958 8.85662 71.9954 8.75702C72.095 8.67166 72.2088 8.62898 72.351 8.62898C72.4649 8.62898 72.5645 8.65743 72.6498 8.72857C72.7352 8.7997 72.8063 8.8993 72.849 9.04158C72.9202 9.19808 72.9913 9.32613 73.0624 9.42573C73.1336 9.52532 73.2474 9.61069 73.3897 9.68182C73.5319 9.75296 73.7169 9.78142 73.9446 9.78142C74.2576 9.78142 74.5137 9.71028 74.7128 9.58223C74.912 9.43995 74.9974 9.28345 74.9974 9.08426C74.9974 8.92775 74.9405 8.79971 74.8409 8.70012C74.7413 8.60052 74.599 8.52938 74.4283 8.47247C74.2576 8.41556 74.0299 8.35865 73.7454 8.30174C73.3612 8.21637 73.0482 8.11678 72.7779 8.00296C72.5218 7.88914 72.3084 7.73263 72.1519 7.54767C71.9954 7.34848 71.9242 7.10661 71.9242 6.82206C71.9242 6.55173 72.0096 6.29563 72.1661 6.08222C72.3226 5.8688 72.5645 5.69807 72.8632 5.58425C73.162 5.47043 73.5319 5.41352 73.9303 5.41352C74.2576 5.41352 74.5421 5.4562 74.784 5.52734C75.0259 5.59848 75.225 5.69807 75.3816 5.82612C75.5381 5.95417 75.6519 6.08222 75.7372 6.2245C75.8084 6.36677 75.8511 6.49482 75.8511 6.6371C75.8511 6.76515 75.8084 6.87897 75.7088 6.96434C75.6092 7.06393 75.4954 7.10661 75.3531 7.10661C75.225 7.10661 75.1255 7.07816 75.0543 7.02125C74.9832 6.96434 74.912 6.86474 74.8409 6.73669C74.7413 6.55173 74.6275 6.40946 74.4994 6.30986C74.3714 6.21027 74.158 6.15336 73.8592 6.15336C73.5889 6.15336 73.3612 6.21027 73.1905 6.32409C73.0198 6.43791 72.9486 6.56596 72.9486 6.72247C72.9486 6.82206 72.9771 6.8932 73.034 6.96434C73.0909 7.03548 73.162 7.09239 73.2616 7.1493C73.3612 7.20621 73.4608 7.23466 73.5604 7.26312C73.66 7.29157 73.8307 7.33426 74.0726 7.39117C74.3714 7.46231 74.6417 7.53345 74.8836 7.60458C75.1255 7.68995 75.3389 7.77532 75.5096 7.88914C75.6803 8.00296 75.8226 8.14524 75.9222 8.31597C76.0218 8.4867 76.0645 8.70012 76.0645 8.95621C76.1214 9.28345 76.036 9.55377 75.8653 9.79564Z" fill="white"/>
</svg>