<svg width="52" height="52" viewBox="0 0 52 52" fill="none" xmlns="http://www.w3.org/2000/svg">
<path d="M51.3319 26.6681C51.7009 12.6776 40.6585 1.03703 26.6681 0.66806C12.6777 0.299087 1.03706 11.3415 0.668085 25.3319C0.299112 39.3223 11.3415 50.9629 25.3319 51.3319C39.3224 51.7009 50.9629 40.6585 51.3319 26.6681Z" fill="#00AFF0"/>
<path d="M38.6746 27.998C38.7671 27.3506 38.8133 26.6571 38.8133 26.0097C38.8133 18.8887 33.0333 13.155 25.9586 13.155C25.265 13.155 24.6176 13.2012 23.9703 13.2937C22.768 12.5539 21.3808 12.1377 19.9011 12.1377C15.6008 12.1377 12.1328 15.6057 12.1328 19.906C12.1328 21.3857 12.549 22.8191 13.2888 23.9751C13.1963 24.6225 13.1501 25.3161 13.1501 25.9635C13.1501 33.0844 18.9301 38.8182 26.0048 38.8182C26.6984 38.8182 27.3458 38.7719 27.9931 38.6795C29.1954 39.4193 30.5826 39.8355 32.0623 39.8355C36.3626 39.8355 39.8306 36.3674 39.8306 32.0671C39.8306 30.5874 39.4144 29.2003 38.6746 27.998ZM32.0623 31.8359C31.5074 32.622 30.7213 33.2231 29.6578 33.6855C28.5943 34.1479 27.392 34.3329 25.9586 34.3329C24.2477 34.3329 22.8143 34.0555 21.7045 33.4081C20.9184 32.9919 20.2711 32.3908 19.7624 31.651C19.2538 30.9111 19.0226 30.2175 19.0226 29.5239C19.0226 29.1078 19.1613 28.7841 19.485 28.4604C19.8087 28.183 20.1786 28.0443 20.641 28.0443C21.0109 28.0443 21.3346 28.1367 21.612 28.3679C21.8895 28.5991 22.1207 28.9228 22.2594 29.3852C22.4906 29.8939 22.7218 30.31 22.953 30.6337C23.1842 30.9574 23.5541 31.2348 24.0165 31.466C24.4789 31.6972 25.08 31.7897 25.8199 31.7897C26.8371 31.7897 27.6695 31.5585 28.3168 31.1423C28.9642 30.6799 29.2416 30.1713 29.2416 29.5239C29.2416 29.0153 29.0567 28.5991 28.733 28.2755C28.4093 27.9518 27.9469 27.7206 27.392 27.5356C26.8371 27.3506 26.0973 27.1657 25.1725 26.9807C23.924 26.7033 22.9067 26.3796 22.0282 26.0097C21.1959 25.6398 20.5023 25.1311 19.9936 24.53C19.485 23.8827 19.2538 23.0966 19.2538 22.1718C19.2538 21.2932 19.5312 20.4609 20.0399 19.7673C20.5485 19.0737 21.3346 18.5188 22.3056 18.1489C23.2767 17.779 24.4789 17.594 25.7736 17.594C26.8371 17.594 27.7619 17.7327 28.548 17.9639C29.3341 18.1951 29.9815 18.5188 30.4901 18.935C30.9987 19.3511 31.3687 19.7673 31.6461 20.2297C31.8773 20.6921 32.016 21.1083 32.016 21.5707C32.016 21.9868 31.8773 22.3567 31.5536 22.6342C31.2299 22.9579 30.86 23.0966 30.3976 23.0966C29.9815 23.0966 29.6578 23.0041 29.4266 22.8191C29.1954 22.6342 28.9642 22.3105 28.733 21.8943C28.4093 21.2932 28.0394 20.8308 27.6232 20.5071C27.2071 20.1835 26.5135 19.9985 25.5424 19.9985C24.6639 19.9985 23.924 20.1835 23.3691 20.5534C22.8143 20.9233 22.5831 21.3395 22.5831 21.8481C22.5831 22.1718 22.6755 22.403 22.8605 22.6342C23.0455 22.8654 23.2767 23.0503 23.6003 23.2353C23.924 23.4203 24.2477 23.5127 24.5714 23.6052C24.8951 23.6977 25.4499 23.8364 26.236 24.0214C27.2071 24.2526 28.0856 24.4838 28.8717 24.715C29.6578 24.9924 30.3514 25.2699 30.9063 25.6398C31.4611 26.0097 31.9235 26.4721 32.2472 27.027C32.5709 27.5819 32.7096 28.2755 32.7096 29.1078C32.8946 30.1713 32.6171 31.0498 32.0623 31.8359Z" fill="#F1F2F2"/>
</svg>
