<svg width="52" height="52" viewBox="0 0 52 52" fill="none" xmlns="http://www.w3.org/2000/svg">
<path d="M52 26C52 40.3594 40.3594 52 26 52C11.6406 52 0 40.3594 0 26C0 11.6406 11.6406 0 26 0C40.3594 0 52 11.6406 52 26Z" fill="#2CA5E0"/>
<path d="M31.7427 31.9389C32.5426 29.7527 35.4715 21.4387 35.9418 19.2582C36.4735 16.7927 35.3604 16.5521 32.8288 17.379C30.2972 18.2059 23.8048 20.6122 22.7121 21.0001C21.6193 21.388 16.2994 23.176 15.1964 23.7095C12.9436 24.9178 14.0395 26.7619 16.558 27.7194C24.0853 31.3326 21.9479 29.4914 25.3085 36.177C26.0001 37.885 27.6309 40.7941 29.1927 38.5951C30.0138 37.3444 31.1136 33.6581 31.7427 31.9389Z" fill="white"/>
</svg>
