<svg width="52" height="52" viewBox="0 0 52 52" fill="none" xmlns="http://www.w3.org/2000/svg">
<path d="M0 26C0 11.6241 11.6241 0 26 0C40.3759 0 52 11.6241 52 26C52 40.3759 40.3759 52 26 52C11.6241 52 0 40.3759 0 26Z" fill="#7B519D"/>
<path d="M37.4107 31.4775C36.5836 30.7883 35.6877 30.168 34.7917 29.5478C32.9999 28.3072 31.4147 28.2383 30.1053 30.237C29.3472 31.3396 28.3134 31.4086 27.2796 30.9261C24.3162 29.5478 21.9729 27.4802 20.6635 24.4478C20.0432 23.1384 20.0432 21.8978 21.4905 20.933C22.2486 20.4506 22.9378 19.8303 22.9378 18.7276C22.8689 17.2803 19.423 12.5249 18.0446 12.0425C17.4932 11.8358 16.9419 11.8358 16.3216 12.0425C13.0825 13.1452 11.773 15.7641 13.0825 18.8654C16.873 28.1694 23.558 34.6477 32.7242 38.645C33.2755 38.8518 33.8269 38.9896 34.1026 39.0585C36.1701 39.0585 38.6512 37.0599 39.3404 35.0612C40.0295 33.1315 38.5823 32.3734 37.4107 31.4775Z" fill="#F1F2F2"/>
<path d="M27.1411 12.662C33.8951 13.6958 36.9275 16.866 37.8234 23.689C37.8923 24.3092 37.6855 25.2741 38.5815 25.2741C39.5463 25.2741 39.2707 24.3782 39.2707 23.7579C39.3396 17.4174 33.7572 11.4904 27.3478 11.2837C26.8654 11.3526 25.8316 10.9391 25.7627 12.0418C25.7627 12.731 26.5897 12.5931 27.1411 12.662Z" fill="#F1F2F2"/>
<path d="M28.4515 14.5236C27.8313 14.4547 26.9353 14.1101 26.7975 15.0061C26.6597 15.9709 27.6245 15.8331 28.1759 15.9709C32.311 16.8669 33.7582 18.3831 34.4474 22.5182C34.5163 23.1384 34.3785 24.0344 35.3434 23.8965C36.1015 23.7587 35.8258 23.0006 35.8947 22.5182C35.9636 18.5898 32.5866 15.0061 28.4515 14.5236Z" fill="#F1F2F2"/>
<path d="M28.8637 17.7626C28.4502 17.7626 28.0367 17.8315 27.8299 18.3139C27.6232 19.0031 28.1056 19.1409 28.588 19.2788C30.311 19.5544 31.2069 20.5882 31.3447 22.2423C31.4137 22.7247 31.6893 23.0693 32.1028 23.0003C32.7231 22.9314 32.792 22.3801 32.7231 21.8287C32.8609 19.899 30.6556 17.6936 28.8637 17.7626Z" fill="#F1F2F2"/>
</svg>
