<svg width="52" height="52" viewBox="0 0 52 52" fill="none" xmlns="http://www.w3.org/2000/svg">
<mask id="mask0_527_286" style="mask-type:luminance" maskUnits="userSpaceOnUse" x="0" y="0" width="52" height="52">
<path d="M52 0H0V52H52V0Z" fill="white"/>
</mask>
<g mask="url(#mask0_527_286)">
<circle cx="25.74" cy="26" r="26" fill="#0077FF"/>
<path d="M27.6685 37.4619C15.8168 37.4619 9.05683 29.3369 8.77515 15.8169H14.7118C14.9068 25.7402 19.2834 29.9435 22.75 30.8102V15.8169H28.3402V24.3752C31.7636 24.0068 35.3598 20.1069 36.5732 15.8169H42.1633C41.2316 21.1036 37.3316 25.0035 34.5583 26.6068C37.3316 27.9068 41.7735 31.3085 43.4635 37.4619H37.31C35.9883 33.3452 32.6952 30.1602 28.3402 29.7268V37.4619H27.6685Z" fill="white"/>
</g>
</svg>
