<svg width="52" height="52" viewBox="0 0 52 52" fill="none" xmlns="http://www.w3.org/2000/svg">
<path d="M26 52C40.3594 52 52 40.3594 52 26C52 11.6406 40.3594 0 26 0C11.6406 0 0 11.6406 0 26C0 40.3594 11.6406 52 26 52Z" fill="#30BF39"/>
<path fill-rule="evenodd" clip-rule="evenodd" d="M33.6773 28.1018C33.3483 27.9138 31.6096 26.974 31.2806 26.833C30.9517 26.692 30.7167 26.645 30.4817 26.9739C30.2468 27.3029 29.4949 28.1018 29.3069 28.3368C29.0719 28.5717 28.884 28.5717 28.508 28.3838C28.1791 28.1958 27.0042 27.7728 25.6884 26.504C24.6546 25.5172 23.9967 24.2953 23.8087 23.9664C23.6207 23.5904 23.8087 23.4025 23.9967 23.2615C24.1846 23.1205 24.3726 22.8385 24.5606 22.6506C24.7486 22.4626 24.7955 22.3216 24.9365 22.0866C25.0775 21.8517 25.0305 21.6637 24.9365 21.4757C24.8425 21.2878 24.1846 19.502 23.9497 18.7501C23.6677 17.9982 23.3857 18.1392 23.1508 18.1392C22.9628 18.1392 22.6808 18.0922 22.4459 18.0922C22.2109 18.0922 21.835 18.1392 21.459 18.5151C21.1301 18.8441 20.1432 19.69 20.0962 21.4757C20.0492 23.2615 21.271 25.0002 21.412 25.2352C21.6 25.4702 23.7617 29.3236 27.3332 30.8744C30.9047 32.4252 30.9517 31.9553 31.6096 31.9553C32.2675 31.9083 33.7713 31.1564 34.1002 30.3575C34.4292 29.5116 34.4762 28.8067 34.3822 28.6657C34.2882 28.3838 34.0532 28.2898 33.6773 28.1018ZM27.0982 36.6076C24.7016 36.6076 22.4929 35.9027 20.6601 34.6809L16.1488 36.1377L17.6056 31.8143C16.1958 29.8875 15.3969 27.5379 15.3969 24.9532C15.3969 18.5151 20.6601 13.2519 27.0982 13.2519C33.5363 13.2519 38.7996 18.5151 38.7996 24.9532C38.7996 31.3913 33.5363 36.6076 27.0982 36.6076ZM27.0982 10.8552C19.3443 10.8552 13.0472 17.1523 13.0472 24.9062C13.0472 27.5849 13.7991 30.0285 15.0679 32.1432L12.5303 39.6622L20.3312 37.1715C22.3519 38.2994 24.6546 38.9103 27.1452 38.9103C34.8991 38.9103 41.1962 32.6132 41.1962 24.8592C41.1492 17.1523 34.8521 10.8552 27.0982 10.8552Z" fill="#F1F2F2"/>
</svg>
