<svg width="52" height="52" viewBox="0 0 52 52" fill="none" xmlns="http://www.w3.org/2000/svg">
<path d="M26 52C40.3594 52 52 40.3594 52 26C52 11.6406 40.3594 0 26 0C11.6406 0 0 11.6406 0 26C0 40.3594 11.6406 52 26 52Z" fill="#E52D27"/>
<path fill-rule="evenodd" clip-rule="evenodd" d="M41.5443 19.7486C41.5443 17.1865 39.4567 15.0989 36.8946 15.0989H15.0696C12.5075 15.0989 10.4199 17.1865 10.4199 19.7486V32.2268C10.4199 34.7888 12.5075 36.8765 15.0696 36.8765H36.8946C39.4567 36.8765 41.5443 34.7888 41.5443 32.2268V19.7486ZM22.8507 31.2304V19.5113L31.7231 25.3471L22.8507 31.2304Z" fill="#F1F2F2"/>
</svg>
