<svg width="152" height="235" fill="none" xmlns="http://www.w3.org/2000/svg"><path fill-rule="evenodd" clip-rule="evenodd" d="M13.488 31.674H139.99v203.26H13.487V31.674z" fill="url(#paint0_linear_458_352)"/><path fill-rule="evenodd" clip-rule="evenodd" d="M0 35.348V0h20.989v18.413h13.26V0h20.535v18.413h14.359V0h20.193v18.413h13.26V0h17.845v18.413h13.26V0H152v35.348H0z" fill="url(#paint1_linear_458_352)"/><path fill-rule="evenodd" clip-rule="evenodd" d="M13.488 57.588h126.275V52.89H13.487v4.698z" fill="url(#paint2_linear_458_352)"/><path fill-rule="evenodd" clip-rule="evenodd" d="M13.601 67.894h126.162v-4.812H13.601v4.812z" fill="url(#paint3_linear_458_352)"/><path fill-rule="evenodd" clip-rule="evenodd" d="M13.715 48.95H139.99V44.1H13.715v4.85z" fill="url(#paint4_linear_458_352)"/><path fill-rule="evenodd" clip-rule="evenodd" d="M30.044 111.804V94.187a10.419 10.419 0 019.547-6.062 8.107 8.107 0 019.093 7.577v16.519l-18.64-.417z" fill="url(#paint5_linear_458_352)"/><path fill-rule="evenodd" clip-rule="evenodd" d="M69.029 112.03V92.481a11.631 11.631 0 0110.57-6.592 8.94 8.94 0 0110.078 8.297v18.413l-20.648-.569z" fill="url(#paint6_linear_458_352)"/><path fill-rule="evenodd" clip-rule="evenodd" d="M109.984 112.485V95.02a10.684 10.684 0 019.548-6.062 8.108 8.108 0 019.092 7.577v16.632l-18.64-.682z" fill="url(#paint7_linear_458_352)"/><path fill-rule="evenodd" clip-rule="evenodd" d="M63.763 206.86v-29.286a17.503 17.503 0 0115.95-10.116c11.669 0 15.154 8.449 15.154 12.579v27.619l-31.104-.796z" fill="url(#paint8_linear_458_352)"/><defs><linearGradient id="paint0_linear_458_352" x1="13.565" y1="115.059" x2="140.664" y2="115.059" gradientUnits="userSpaceOnUse"><stop stop-color="#A57F53"/><stop offset=".11" stop-color="#956E41"/><stop offset=".28" stop-color="#BC976B"/><stop offset=".48" stop-color="#E7C297"/><stop offset=".71" stop-color="#FFEED3"/><stop offset=".9" stop-color="#EEC99F"/><stop offset="1" stop-color="#DBB68B"/></linearGradient><linearGradient id="paint1_linear_458_352" x1=".028" y1="17.293" x2="152.706" y2="17.293" gradientUnits="userSpaceOnUse"><stop stop-color="#7D5628"/><stop offset=".18" stop-color="#613A0C"/><stop offset=".66" stop-color="#9A7346"/><stop offset=".8" stop-color="#7C5527"/><stop offset="1" stop-color="#5B3403"/></linearGradient><linearGradient id="paint2_linear_458_352" x1="14.045" y1="55.648" x2="139.697" y2="55.648" gradientUnits="userSpaceOnUse"><stop stop-color="#613A0C"/><stop offset="1" stop-color="#542D00"/></linearGradient><linearGradient id="paint3_linear_458_352" x1="13.172" y1="64.714" x2="139.914" y2="64.714" gradientUnits="userSpaceOnUse"><stop stop-color="#613A0C"/><stop offset="1" stop-color="#542D00"/></linearGradient><linearGradient id="paint4_linear_458_352" x1="14.234" y1="45.734" x2="139.887" y2="45.734" gradientUnits="userSpaceOnUse"><stop stop-color="#613A0C"/><stop offset="1" stop-color="#542D00"/></linearGradient><linearGradient id="paint5_linear_458_352" x1="39.336" y1="90.168" x2="38.441" y2="114.612" gradientUnits="userSpaceOnUse"><stop stop-color="#613A0C"/><stop offset="1" stop-color="#7B5426"/></linearGradient><linearGradient id="paint6_linear_458_352" x1="79.607" y1="84.231" x2="78.286" y2="111.313" gradientUnits="userSpaceOnUse"><stop stop-color="#613A0C"/><stop offset="1" stop-color="#7B5426"/></linearGradient><linearGradient id="paint7_linear_458_352" x1="119.587" y1="90.812" x2="118.395" y2="115.246" gradientUnits="userSpaceOnUse"><stop stop-color="#613A0C"/><stop offset="1" stop-color="#7B5426"/></linearGradient><linearGradient id="paint8_linear_458_352" x1="79.907" y1="166.553" x2="78.41" y2="207.293" gradientUnits="userSpaceOnUse"><stop stop-color="#613A0C"/><stop offset="1" stop-color="#7B5426"/></linearGradient></defs></svg>