<svg xmlns="http://www.w3.org/2000/svg" xmlns:xlink="http://www.w3.org/1999/xlink" viewBox="0 0 467.4 102"><defs><linearGradient id="linear-gradient" x1="9657.26" y1="2396.81" x2="9637.19" y2="-4060.12" gradientTransform="matrix(.03 0 0 -.03 .43 3.92)" gradientUnits="userSpaceOnUse"><stop offset="0" stop-color="#fff"/><stop offset="1" stop-color="#fff" stop-opacity="0"/></linearGradient><linearGradient id="linear-gradient-3" x1="-.38" y1="106.25" x2="-.38" y2="104.95" gradientTransform="matrix(48.08 0 0 -32.23 79.83 3478.66)" gradientUnits="userSpaceOnUse"><stop offset="0" stop-color="#8d6639"/><stop offset=".47" stop-color="#cba67b"/><stop offset="1" stop-color="#d6b186"/></linearGradient><linearGradient id="linear-gradient-4" x1="-.91" y1="217.83" x2=".13" y2="217.83" gradientTransform="matrix(47.82 0 0 -.91 79.94 255.92)" gradientUnits="userSpaceOnUse"><stop offset="0" stop-color="#613a0c"/><stop offset="1" stop-color="#542d00"/></linearGradient><linearGradient id="linear-gradient-5" x1="-.91" y1="214.24" x2=".13" y2="214.24" gradientTransform="matrix(47.82 0 0 -.94 79.86 260.8)" xlink:href="#linear-gradient-4"/><linearGradient id="linear-gradient-6" x1="-.91" y1="214.41" x2=".13" y2="214.41" gradientTransform="matrix(47.82 0 0 -.94 79.72 257.17)" xlink:href="#linear-gradient-4"/><linearGradient id="linear-gradient-7" x1="-4.56" y1="109.95" x2="-4.59" y2="108.89" gradientTransform="matrix(11.51 0 0 -14.97 119.8 1717.86)" gradientUnits="userSpaceOnUse"><stop offset="0" stop-color="#391a00"/><stop offset="1" stop-color="#522a00"/></linearGradient><linearGradient id="linear-gradient-8" x1="-.38" y1="128.72" x2="-.35" y2="122.01" gradientTransform="matrix(48.05 0 0 -4.08 80.07 575.33)" gradientUnits="userSpaceOnUse"><stop offset="0" stop-color="#4f2800"/><stop offset="1" stop-color="#963"/></linearGradient><linearGradient id="linear-gradient-9" x1="-1.61" y1="104.62" x2="-.56" y2="104.62" gradientTransform="matrix(31.95 0 0 -51.34 69.09 5427.48)" gradientUnits="userSpaceOnUse"><stop offset="0" stop-color="#a57f53"/><stop offset=".11" stop-color="#956e41"/><stop offset=".28" stop-color="#bc976b"/><stop offset=".48" stop-color="#e7c297"/><stop offset=".71" stop-color="#ffeed3"/><stop offset=".9" stop-color="#eec99f"/><stop offset="1" stop-color="#dbb68b"/></linearGradient><linearGradient id="linear-gradient-10" x1="-1.27" y1="114.35" x2="-.22" y2="114.35" gradientTransform="matrix(38.38 0 0 -8.93 62.82 1051.63)" gradientUnits="userSpaceOnUse"><stop offset="0" stop-color="#7d5628"/><stop offset=".18" stop-color="#613a0c"/><stop offset=".66" stop-color="#9a7346"/><stop offset=".8" stop-color="#7c5527"/><stop offset="1" stop-color="#5b3403"/></linearGradient><linearGradient id="linear-gradient-11" x1="-1.61" y1="191.01" x2="-.57" y2="191.01" gradientTransform="matrix(31.89 0 0 -1.19 69.12 267.91)" xlink:href="#linear-gradient-4"/><linearGradient id="linear-gradient-12" x1="-1.62" y1="188.86" x2="-.57" y2="188.86" gradientTransform="matrix(31.86 0 0 -1.22 69.16 273.41)" xlink:href="#linear-gradient-4"/><linearGradient id="linear-gradient-13" x1="-1.61" y1="189.04" x2="-.57" y2="189.04" gradientTransform="matrix(31.89 0 0 -1.22 69.17 268.62)" xlink:href="#linear-gradient-4"/><linearGradient id="linear-gradient-14" x1="-12.94" y1="120.23" x2="-12.97" y2="119.17" gradientTransform="matrix(4.71 0 0 -6.09 85.4 781.92)" gradientUnits="userSpaceOnUse"><stop offset="0" stop-color="#613a0c"/><stop offset="1" stop-color="#7b5426"/></linearGradient><linearGradient id="linear-gradient-15" x1="-11.49" y1="118.57" x2="-11.53" y2="117.51" gradientTransform="matrix(5.22 0 0 -6.75 95.06 848.5)" xlink:href="#linear-gradient-14"/><linearGradient id="linear-gradient-16" x1="-12.74" y1="120.23" x2="-12.78" y2="119.17" gradientTransform="matrix(4.71 0 0 -6.09 105.64 782.09)" xlink:href="#linear-gradient-14"/><linearGradient id="linear-gradient-17" x1="-7.34" y1="113.26" x2="-7.37" y2="112.2" gradientTransform="matrix(7.82 0 0 -10.15 92.56 1219.47)" xlink:href="#linear-gradient-14"/><linearGradient id="linear-gradient-18" x1="-1.62" y1="187.3" x2="-.57" y2="187.3" gradientTransform="matrix(31.86 0 0 -1.22 69.19 315.59)" xlink:href="#linear-gradient-4"/><linearGradient id="linear-gradient-19" x1="-16.97" y1="125.59" x2="-17" y2="124.53" gradientTransform="matrix(3.57 0 0 -4.62 117.11 644.07)" xlink:href="#linear-gradient-14"/><linearGradient id="linear-gradient-20" x1="-16.93" y1="125.45" x2="-16.97" y2="124.4" gradientTransform="matrix(3.54 0 0 -4.65 131.1 646.87)" xlink:href="#linear-gradient-14"/><linearGradient id="linear-gradient-21" x1="-16.71" y1="125.59" x2="-16.75" y2="124.54" gradientTransform="matrix(3.57 0 0 -4.62 137.41 643.87)" xlink:href="#linear-gradient-14"/><linearGradient id="linear-gradient-22" x1="-16.88" y1="125.59" x2="-16.92" y2="124.53" gradientTransform="matrix(3.57 0 0 -4.62 123.94 644.01)" xlink:href="#linear-gradient-14"/><linearGradient id="linear-gradient-23" x1="-.15" y1="114.35" x2="-1.2" y2="114.35" gradientTransform="matrix(38.35 0 0 -8.93 125.81 1051.55)" xlink:href="#linear-gradient-10"/><linearGradient id="linear-gradient-24" x1="-.48" y1="189.04" x2="-1.53" y2="189.04" gradientTransform="matrix(31.86 0 0 -1.22 131.75 268.56)" xlink:href="#linear-gradient-4"/><linearGradient id="linear-gradient-25" x1="-2.28" y1="110.64" x2="-1.24" y2="110.64" gradientTransform="matrix(22.79 0 0 -13.12 150.94 1458.94)" gradientUnits="userSpaceOnUse"><stop offset="0" stop-color="#001460"/><stop offset=".63" stop-color="#a0d7f1"/><stop offset="1" stop-color="#62bde8"/></linearGradient><style>.cls-2{fill:#633}.cls-10,.cls-11,.cls-12,.cls-13,.cls-14,.cls-15,.cls-16,.cls-17,.cls-18,.cls-19,.cls-2,.cls-20,.cls-21,.cls-22,.cls-23,.cls-24,.cls-25,.cls-26,.cls-27,.cls-28,.cls-29,.cls-30,.cls-31,.cls-32,.cls-34,.cls-8,.cls-9{fill-rule:evenodd}.cls-3{fill:#654333}.cls-25,.cls-4{fill:#001460}.cls-26,.cls-5{fill:#62bde8}.cls-6{fill:#895b45}.cls-7{mask:url(#mask)}.cls-8{fill:#fff;stroke:#fff;stroke-width:.57px}.cls-13,.cls-8{stroke-miterlimit:10}.cls-9{fill:url(#linear-gradient-3)}.cls-10{fill:url(#linear-gradient-4)}.cls-11{fill:url(#linear-gradient-5)}.cls-12{fill:url(#linear-gradient-6)}.cls-13{stroke:#963;stroke-width:.35px;fill:url(#linear-gradient-7)}.cls-14{fill:url(#linear-gradient-8)}.cls-15{fill:url(#linear-gradient-9)}.cls-16{fill:url(#linear-gradient-10)}.cls-17{fill:url(#linear-gradient-11)}.cls-18{fill:url(#linear-gradient-12)}.cls-19{fill:url(#linear-gradient-13)}.cls-20{fill:url(#linear-gradient-14)}.cls-21{fill:url(#linear-gradient-15)}.cls-22{fill:url(#linear-gradient-16)}.cls-23{fill:url(#linear-gradient-17)}.cls-24{fill:url(#linear-gradient-18)}.cls-27{fill:url(#linear-gradient-19)}.cls-28{fill:url(#linear-gradient-20)}.cls-29{fill:url(#linear-gradient-21)}.cls-30{fill:url(#linear-gradient-22)}.cls-31{fill:url(#linear-gradient-23)}.cls-32{fill:url(#linear-gradient-24)}.cls-33{fill:url(#linear-gradient-25)}.cls-34{fill:#963}</style><mask id="mask" x="82.06" y="37.56" width="383.5" height="35.52" maskUnits="userSpaceOnUse"><path fill="url(#linear-gradient)" d="M82.06 37.56h383.5v35.52H82.06z" id="id0"/></mask></defs><g id="Layer_2" data-name="Layer 2"><g id="Layer_1-2" data-name="Layer 1"><g id="Слой_1"><g id="_2490195871088" data-name="2490195871088"><path class="cls-2" d="M418.4 99.07s-12.68-10.64-38.78-10.93c-40.35-.48 31.55 1.36 38.78 10.93z"/><path id="_1" data-name="1" class="cls-3" d="M379.62 88l2.43.06 2.34.09 2.25.17 2.16.21 2.11.27 2 .32 2 .33 1.86.38 1.78.39 1.72.44 1.63.45 1.54.47 1.48.51 1.39.47 1.33.5 1.25.51L410 94l1.1.5 1 .51 1 .47.9.52.8.44.72.42.65.38.56.39.47.32.42.27.35.23.24.21.21.15.12.09-.24.3-.12-.09L418 99l-.26-.18-.33-.27-.41-.26-.48-.33-.56-.35-.62-.39-.71-.41-.8-.45-.86-.47-.92-.48-1-.47-1.06-.5-1.19-.51-1.21-.5-1.34-.5-1.39-.51-1.48-.47-1.54-.48-1.72-.47-1.69-.42-1.78-.41-1.86-.39-1.93-.32-2-.3-2.08-.26-2.16-.21-2.25-.18-2.37-.14-2.4-.06zm38.9 11l-.27.27-.83-.86-1.18-.8-1.52-.8L413 96l-2.05-.69-2.28-.65-2.51-.66-2.57-.59-2.73-.56-2.81-.51-2.88-.47-2.9-.45-2.87-.42-2.85-.36-2.75-.35-2.67-.3-2.52-.29-2.34-.27-2.13-.21-1.9-.21-1.66-.17-1.33-.15-1-.15-.65-.09-.35-.24.32-.29h8.62l3.44.06v.35h-11.36l-.65.06v-.18h.09l.62.11 1 .12 1.33.15 1.63.18 1.9.21 2.16.23 2.34.27 2.52.27 2.67.32 2.75.33 2.84.38 2.88.42 2.9.44 2.88.48 2.81.5 2.73.56 2.6.57 2.46.62L411 95l2.08.71 1.8.74 1.54.8 1.25.86.89.89-.27.27zm0 0l1 1.3-1.24-1z"/><path class="cls-4" d="M95.6 76.64c0 3 .36 5.1 1 6.25s2.31 1.75 4.83 1.75h10c2.67 0 5.33-1.22 8-3.61l.83-.8a7.24 7.24 0 01.89-.69 1.24 1.24 0 01.74-.23c.71 0 1.07.38 1.07 1.15a13.57 13.57 0 01-.3 2.11c-.18 1-.3 1.77-.33 2.19a7.33 7.33 0 01-.83 2.84c-.23.27-1.06.42-2.49.48h-30.9c-1.54 0-2.34-.51-2.34-1.51 0-.8.53-1.37 1.6-1.6a4.08 4.08 0 002-1.28 7.05 7.05 0 00.34-2.69V46c0-2-.72-3.17-2.14-3.41-1.18-.27-1.8-.8-1.8-1.6 0-1 .8-1.51 2.34-1.51h29.38c1.28.36 2.08 1.42 2.34 3.2l.57 4.09a.94.94 0 01-1.07 1.06 1.5 1.5 0 01-1.18-.53c-2.4-2.93-4.92-4.38-7.62-4.38H100a4.33 4.33 0 00-3.44 1.15 6.69 6.69 0 00-.92 4.06v12.13h12.71a6.37 6.37 0 004.5-1.39 2.12 2.12 0 011.48-.83c.86 0 1.28 1.6 1.28 4.8 0 1.92-.53 2.87-1.6 2.87a2.17 2.17 0 01-1.48-.83 5.5 5.5 0 00-3.88-1.19h-13zM148.45 68l-.86.86a64.94 64.94 0 0111.11 14.3 5 5 0 001.93 1.92c.8.39 1.18.89 1.18 1.49a1.68 1.68 0 01-.32 1.24 2.25 2.25 0 01-1.28.27h-7.58c-1.21 0-1.84-.45-1.84-1.31 0-.53.36-1 1.07-1.45s1.1-.86 1.1-1.3c0-1.28-1.1-3.23-3.23-6a49.49 49.49 0 00-5.54-6.22l-5.78 4.74v3.29a10.67 10.67 0 00.53 4.27 2.94 2.94 0 001.48 1c.86.45 1.31 1 1.31 1.49a1.28 1.28 0 01-.57 1.06 1.93 1.93 0 01-1.27.45h-7.58c-1.51 0-2.25-.51-2.25-1.51a1.45 1.45 0 011.18-1.4c1-.32 1.54-.65 1.69-1 .38-.56.56-2 .56-4.38V47.55a11.82 11.82 0 00-.41-3.7 3.08 3.08 0 00-2-1.55c-.8-.38-1.18-.74-1.18-1.06s.5-.89 1.51-1.39a12.55 12.55 0 015.59-1.93c.92 0 1.39.86 1.39 2.58v32.17q11.86-9.47 11.85-12.09c0-.5-.36-1-1.07-1.6a1.49 1.49 0 01-.86-1.27c0-.65.51-1 1.51-1h7.8c1.15 0 1.71.36 1.71 1.07s-.5 1.3-1.51 1.69a11.33 11.33 0 00-2.82 1.77c-.62.59-1.69 1.71-3.23 3.4zm33.72 1.69a17.15 17.15 0 016.34 2.81 7.52 7.52 0 012.75 5.87 9.4 9.4 0 01-1.72 5.63 11 11 0 01-4.54 3.72 13.47 13.47 0 01-5.89 1.3 15.07 15.07 0 01-7.71-2.13q-3.65-2.17-3.64-4.8a2.08 2.08 0 01.5-1.3 1.53 1.53 0 011.22-.62c.59 0 1.39.62 2.46 1.92a11.58 11.58 0 003.31 2.67 10.84 10.84 0 004.48 1.18 8.23 8.23 0 004.8-1.51 4.67 4.67 0 002.16-4.06 3.8 3.8 0 00-2-3.79 33.11 33.11 0 00-6.51-2.13 19.11 19.11 0 01-6.88-2.9c-1.57-1.22-2.34-3.15-2.34-5.84a8.59 8.59 0 013.53-7 11.83 11.83 0 017.7-2.49 16.45 16.45 0 018.15 2.13 3.18 3.18 0 011.39 3c0 2-.3 3-.89 3s-1.18-.48-2.16-1.46a15.61 15.61 0 00-3.11-2.45 7.38 7.38 0 00-4.12-1 8 8 0 00-4.45 1.17 3.89 3.89 0 00-1.87 3.5 3.23 3.23 0 001.42 2.9 15.26 15.26 0 004 1.81zM217.6 68l-.83.86a66.09 66.09 0 0111.08 14.34 5 5 0 002 1.92c.77.39 1.19.89 1.19 1.49a1.65 1.65 0 01-.36 1.24 2.15 2.15 0 01-1.27.27h-7.58c-1.22 0-1.81-.45-1.81-1.31 0-.53.35-1 1.06-1.45s1.07-.86 1.07-1.3c0-1.28-1.07-3.23-3.2-6a51 51 0 00-5.57-6.22l-5.77 4.74v3.29c0 2.22.17 3.64.56 4.27a2.81 2.81 0 001.48 1c.86.45 1.27 1 1.27 1.49a1.27 1.27 0 01-.56 1.06 1.9 1.9 0 01-1.27.45h-7.59c-1.48 0-2.22-.51-2.22-1.51a1.46 1.46 0 011.16-1.4c1-.32 1.54-.65 1.68-1 .39-.56.57-2 .57-4.38v-32.3a11.45 11.45 0 00-.42-3.7 3 3 0 00-1.95-1.55c-.77-.38-1.19-.74-1.19-1.06s.51-.89 1.54-1.39a12.5 12.5 0 015.54-1.93c1 0 1.4.86 1.4 2.58v32.17q11.87-9.47 11.87-12.09a2.26 2.26 0 00-1.06-1.6 1.43 1.43 0 01-.86-1.27c0-.65.5-1 1.48-1h7.79c1.16 0 1.75.36 1.75 1.07s-.5 1.3-1.54 1.69a12.34 12.34 0 00-2.84 1.75c-.63.59-1.69 1.71-3.23 3.4zm22-2.13a13.9 13.9 0 00-.44-4.27 2.76 2.76 0 00-1.6-1.6c-.77-.29-1.19-.77-1.19-1.39s.77-1.13 2.28-1.63a13.55 13.55 0 013.5-.74c1.66 0 2.46 1.24 2.46 3.76v16.73a15.05 15.05 0 00.77 5.66 5.62 5.62 0 005.45 3 10.71 10.71 0 008.41-3.56 4.66 4.66 0 001.22-2.13 25.7 25.7 0 00.2-3.64v-11a16.29 16.29 0 00-.26-3.5A2.72 2.72 0 00259 60c-.71-.29-1.06-.68-1.06-1.18s.5-1.07 1.51-1.51a8.64 8.64 0 014.26-1.07c1.31 0 1.93 1.39 1.93 4.18V80a12.59 12.59 0 00.44 4.26 3.53 3.53 0 001.72 1c.92.42 1.4.89 1.4 1.42s-.15 1.07-.39 1.22a2.21 2.21 0 01-1.33.27h-4.58c-.54 0-1-.45-1.4-1.31a8.71 8.71 0 01-.53-3.2c-3.41 3.65-7.14 5.45-11.23 5.45-3.52 0-6.13-1.21-7.82-3.61-1.57-2-2.34-5-2.34-9zm46 16.8a2 2 0 00.53 1.68 5.25 5.25 0 001.51.77c.77.42 1.16.86 1.16 1.4 0 1.06-.74 1.6-2.22 1.6h-7.08c-1.49 0-2.23-.54-2.23-1.6 0-.57.36-1 1.07-1.31a4.5 4.5 0 001.66-.81 2.07 2.07 0 00.62-1.77V66.69a5 5 0 00-2.78-4.83c-1.07-.36-1.6-.8-1.6-1.37s.59-1.36 1.8-2.25c1.69-1.36 2.91-2 3.65-2 1.12 0 1.89.8 2.34 2.34a49.46 49.46 0 011.27 6.1A19.41 19.41 0 01289 59q2.53-2.75 5.16-2.75c2.49 0 3.73 1.36 3.73 4.06 0 1.66-.5 2.46-1.51 2.46a5.11 5.11 0 01-1.92-.68 5.14 5.14 0 00-2.14-.72c-1.6 0-3.2 1.4-4.83 4.18a12.78 12.78 0 00-1.92 7zm33.5-13a16.83 16.83 0 016.31 2.81 7.53 7.53 0 012.79 5.87 9.42 9.42 0 01-1.76 5.65 11.11 11.11 0 01-4.53 3.73A13.57 13.57 0 01316 89a15 15 0 01-7.7-2.13c-2.46-1.45-3.67-3-3.67-4.8a1.91 1.91 0 01.53-1.3 1.49 1.49 0 011.22-.62c.56 0 1.39.62 2.42 1.92a12 12 0 003.32 2.67 11 11 0 004.51 1.18 8.2 8.2 0 004.79-1.51 4.7 4.7 0 002.14-4.06 3.8 3.8 0 00-2-3.79 32.42 32.42 0 00-6.56-2.11 19.09 19.09 0 01-6.85-2.9c-1.57-1.22-2.37-3.15-2.37-5.84a8.62 8.62 0 013.56-7 11.69 11.69 0 017.67-2.49 16.37 16.37 0 018.15 2.13 3.18 3.18 0 011.39 3c0 2-.3 3-.89 3-.44 0-1.15-.48-2.16-1.46a15.06 15.06 0 00-3.11-2.45 7.31 7.31 0 00-4.12-1 8 8 0 00-4.41 1.21 3.91 3.91 0 00-1.9 3.5 3.23 3.23 0 001.42 2.9 15.07 15.07 0 004.06 1.81zm19.08-22.1a3.49 3.49 0 011.07-2.61 3.82 3.82 0 012.67-1 3.58 3.58 0 012.57 1 3.19 3.19 0 011.07 2.43 3.78 3.78 0 01-1.07 2.82 3.75 3.75 0 01-2.78 1.06 3.27 3.27 0 01-2.55-1.09 3.77 3.77 0 01-.99-2.63zm.82 40.51c-1.48 0-2.22-.51-2.22-1.49a1.52 1.52 0 011.16-1.42 2.67 2.67 0 001.89-1.3 6.85 6.85 0 00.48-2.93v-14a29.69 29.69 0 00-.48-4c-.18-.51-.95-.89-2.28-1.19-1-.33-1.54-.74-1.54-1.27a1.08 1.08 0 01.44-.86 16.25 16.25 0 014.18-2.14 16.51 16.51 0 012.55-1.18c.77 0 1.21.27 1.39.74a15.12 15.12 0 01.54 2.37c.14 1.63.2 4.09.2 7.38V80a16.42 16.42 0 00.33 4.15 3 3 0 001.6 1.06c.95.3 1.39.77 1.39 1.42 0 1-.71 1.49-2.13 1.49zm19.85-40.53a3.49 3.49 0 011.07-2.61 3.82 3.82 0 012.66-1 3.59 3.59 0 012.58 1 3.19 3.19 0 011.07 2.43 3.78 3.78 0 01-1.07 2.82 3.75 3.75 0 01-2.78 1.06 3.27 3.27 0 01-2.55-1.09 3.77 3.77 0 01-.98-2.61zm.86 40.53c-1.51 0-2.25-.51-2.25-1.49a1.5 1.5 0 011.15-1.42 2.69 2.69 0 001.9-1.3 6.88 6.88 0 00.47-2.93v-14a28.68 28.68 0 00-.47-4c-.18-.51-.95-.89-2.28-1.19-1-.33-1.54-.74-1.54-1.27a1.08 1.08 0 01.44-.86 16.25 16.25 0 014.18-2.14 16.51 16.51 0 012.55-1.18c.77 0 1.21.27 1.39.74a14.25 14.25 0 01.53 2.37c.15 1.63.21 4.09.21 7.38V80a16.42 16.42 0 00.33 4.15 3 3 0 001.6 1.06c.94.3 1.39.77 1.39 1.42 0 1-.71 1.49-2.13 1.49zm24.74 0a4.32 4.32 0 01-3.35-1.4 4.46 4.46 0 01-1.27-3.2 4.51 4.51 0 011.24-3.22 4.34 4.34 0 013.38-1.4 4.29 4.29 0 013.4 1.37 5 5 0 010 6.45 4.3 4.3 0 01-3.4 1.4zm16.71-42.87a2.49 2.49 0 00-.54-1.9 10.07 10.07 0 00-1.92-1c-.71-.17-1.1-.5-1.1-1a.94.94 0 01.18-.62 2.09 2.09 0 01.53-.42l.6-.33c2.69-1.36 4.62-2 5.77-2s1.51.92 1.51 2.76v20.74a13.25 13.25 0 0110.61-5.24 12.29 12.29 0 017.2 2.1 12.44 12.44 0 014.35 5.57 20.38 20.38 0 011.42 7.73c0 5-1.36 9.1-4.14 12.18a15.68 15.68 0 01-5.45 3.88 16.33 16.33 0 01-6.52 1.34c-4.47 0-7.82-1.33-10-4-1.63-2.11-2.46-5.75-2.46-10.94zm5 28.82q0 5.77 1.63 8.27a7.7 7.7 0 006.82 3.64 8.19 8.19 0 007.39-3.88 16.18 16.18 0 002.49-8.94 17.8 17.8 0 00-2.13-8.89 9.78 9.78 0 00-2.84-3.23 6.06 6.06 0 00-3.82-1.36 9.79 9.79 0 00-5.33 1.74 13.68 13.68 0 00-4.18 4.15zm32.74-11.11c-.24-1.86-.74-3.08-1.48-3.61s-1.19-1.1-1.19-1.39c0-.8.6-1.19 1.75-1.19h7c1 0 1.51.36 1.51 1.07a1.8 1.8 0 01-.83 1.3 7.34 7.34 0 00-1.27 1.42 5.22 5.22 0 00-.47 2.55 31.23 31.23 0 00.85 5.9c.6 2.66 1.16 4.8 1.72 6.49a20 20 0 003.37 5.54c1.39 1.54 2.67 2.34 3.85 2.34 2.16 0 3.91-2.17 5.33-6.52 1.87-5.48 2.79-9.78 2.79-13a6.9 6.9 0 00-.56-3.35 4.79 4.79 0 00-1.57-1.33 1.63 1.63 0 01-1-1.48c0-.65.47-1 1.39-1H466c.91 0 1.39.3 1.39.86a2.3 2.3 0 01-.12 1A9.65 9.65 0 00466 62l-1 5.65a65 65 0 01-7.47 20.86 39.13 39.13 0 01-7.11 9.18c-2.78 2.67-5.71 4-8.83 4-2.48 0-3.76-.88-3.76-2.66a2.49 2.49 0 01.68-1.72 2.27 2.27 0 011.72-.74 9.31 9.31 0 011.78.27 10.08 10.08 0 001.84.26c2 0 4.11-1.27 6.42-3.82a20.28 20.28 0 004.57-7.08 11.6 11.6 0 01-3.08.62q-4.94 0-8.57-6.93a40.37 40.37 0 01-3.85-13.72z"/><g id="_2490195850608" data-name="2490195850608"><path class="cls-5" d="M92.28 76.88q0 4.53 1.07 6.31c.71 1.15 2.31 1.75 4.86 1.75h10c2.7 0 5.36-1.22 8.06-3.65.24-.24.5-.5.83-.8a8.12 8.12 0 01.86-.68 1.35 1.35 0 01.77-.24c.71 0 1.07.39 1.07 1.19a13.79 13.79 0 01-.3 2.07 20.51 20.51 0 00-.33 2.19 8.14 8.14 0 01-.83 2.88c-.23.26-1.06.41-2.51.47h-31c-1.6 0-2.37-.5-2.37-1.51 0-.8.53-1.36 1.6-1.6a3.93 3.93 0 002-1.3 6.47 6.47 0 00.33-2.67V46.22c0-2.08-.71-3.2-2.14-3.44-1.21-.27-1.8-.8-1.8-1.6 0-1 .77-1.51 2.37-1.51h29.44c1.31.35 2.08 1.42 2.37 3.2l.54 4.12a.94.94 0 01-1.07 1.06 1.51 1.51 0 01-1.18-.56c-2.37-2.93-4.92-4.39-7.62-4.39H96.67a4.33 4.33 0 00-3.44 1.16 6.68 6.68 0 00-1 4.09v12.12H105a6.23 6.23 0 004.5-1.4 2.27 2.27 0 011.49-.86c.88 0 1.33 1.6 1.33 4.83 0 1.93-.56 2.91-1.63 2.91a2.26 2.26 0 01-1.48-.86 5.53 5.53 0 00-3.88-1.19H92.28zm53.06-8.68l-.86.86a65.81 65.81 0 0111.14 14.39 4.85 4.85 0 001.93 1.9c.8.42 1.18.89 1.18 1.51a1.75 1.75 0 01-.32 1.25 2.35 2.35 0 01-1.28.26h-7.61c-1.22 0-1.84-.44-1.84-1.3 0-.53.36-1 1.1-1.45s1.06-.89 1.06-1.34c0-1.24-1.06-3.23-3.22-6a51.69 51.69 0 00-5.57-6.25l-5.81 4.74v3.32c0 2.22.18 3.64.56 4.26a2.77 2.77 0 001.48 1c.86.47 1.31 1 1.31 1.51a1.38 1.38 0 01-.57 1.07 2 2 0 01-1.3.44h-7.58c-1.51 0-2.25-.5-2.25-1.51 0-.65.38-1.12 1.18-1.42 1-.33 1.54-.62 1.69-.92.38-.59.56-2 .56-4.41V47.73a12.12 12.12 0 00-.41-3.74 3.09 3.09 0 00-2-1.54c-.77-.38-1.15-.74-1.15-1.06s.5-.92 1.51-1.4a12.38 12.38 0 015.57-2c1 0 1.39.86 1.39 2.58v32.34q11.91-9.47 11.91-12.15a2.27 2.27 0 00-1.07-1.57 1.53 1.53 0 01-.86-1.3c0-.62.51-1 1.51-1h7.8c1.18 0 1.74.36 1.74 1.07s-.5 1.27-1.51 1.69a11.58 11.58 0 00-2.87 1.74c-.62.6-1.69 1.72-3.23 3.44zm33.83 1.69a17.57 17.57 0 016.34 2.81 7.59 7.59 0 012.79 5.9 9.39 9.39 0 01-1.75 5.65A11.35 11.35 0 01182 88a13.61 13.61 0 01-5.93 1.3 15.06 15.06 0 01-7.7-2.13c-2.46-1.48-3.67-3.08-3.67-4.8a2.07 2.07 0 01.5-1.34 1.56 1.56 0 011.22-.62c.59 0 1.42.62 2.45 2a11.06 11.06 0 003.31 2.59 10.65 10.65 0 004.51 1.19 8.41 8.41 0 004.82-1.48 4.71 4.71 0 002.17-4.09c0-1.87-.65-3.14-2-3.82a34 34 0 00-6.54-2.1 20 20 0 01-6.91-2.94c-1.57-1.21-2.34-3.14-2.34-5.83a8.73 8.73 0 013.56-7.08 11.81 11.81 0 017.7-2.46 16.56 16.56 0 018.18 2.13 3.19 3.19 0 011.39 3c0 2-.3 3-.89 3-.44 0-1.18-.47-2.16-1.48a17.87 17.87 0 00-3.11-2.49 7.85 7.85 0 00-4.15-1 8 8 0 00-4.41 1.27 3.91 3.91 0 00-1.9 3.5 3.31 3.31 0 001.42 2.93 15.86 15.86 0 004.06 1.81zm35.55-1.69l-.85.86A65.18 65.18 0 01225 83.45a4.78 4.78 0 002 1.9c.77.42 1.16.89 1.16 1.51a1.7 1.7 0 01-.33 1.25 2.27 2.27 0 01-1.27.26h-7.66c-1.21 0-1.84-.44-1.84-1.3 0-.53.39-1 1.1-1.45s1.07-.89 1.07-1.34c0-1.24-1.07-3.23-3.23-6a50.85 50.85 0 00-5.57-6.25l-5.81 4.74v3.32c0 2.22.18 3.64.57 4.26a2.72 2.72 0 001.48 1c.86.47 1.3 1 1.3 1.51a1.31 1.31 0 01-.56 1.07 2 2 0 01-1.31.44h-7.58c-1.51 0-2.25-.5-2.25-1.51 0-.65.38-1.12 1.18-1.42 1-.33 1.54-.62 1.69-.92.39-.59.56-2 .56-4.41V47.73a11.81 11.81 0 00-.41-3.74 3.1 3.1 0 00-2-1.54c-.8-.38-1.18-.74-1.18-1.06s.5-.92 1.51-1.4a12.42 12.42 0 015.57-2c1 0 1.39.86 1.39 2.58v32.34q11.91-9.47 11.91-12.15a2.25 2.25 0 00-1.06-1.57 1.51 1.51 0 01-.86-1.3c0-.62.5-1 1.51-1h7.82c1.15 0 1.72.36 1.72 1.07s-.51 1.27-1.51 1.69a11.48 11.48 0 00-2.88 1.74c-.62.6-1.69 1.72-3.23 3.44zm22.05-2.14a12.5 12.5 0 00-.48-4.29 2.5 2.5 0 00-1.57-1.6c-.8-.3-1.18-.77-1.18-1.39s.74-1.13 2.28-1.63a11.79 11.79 0 013.49-.74c1.66 0 2.49 1.24 2.49 3.76V77a15.52 15.52 0 00.74 5.68 5.7 5.7 0 005.48 3 10.84 10.84 0 008.45-3.56 4.63 4.63 0 001.21-2.12 24.33 24.33 0 00.21-3.65v-11a15.57 15.57 0 00-.27-3.49 2.71 2.71 0 00-1.36-1.63c-.71-.3-1.07-.68-1.07-1.19s.51-1.06 1.51-1.51a8.81 8.81 0 014.3-1.12q1.95 0 1.95 4.17v19.65a12.57 12.57 0 00.45 4.29 3.48 3.48 0 001.72.92c.92.44 1.39.89 1.39 1.45a1.55 1.55 0 01-.36 1.22 2.47 2.47 0 01-1.36.26h-4.62c-.53 0-1-.44-1.39-1.3a8.59 8.59 0 01-.54-3.23c-3.4 3.67-7.16 5.48-11.25 5.48-3.56 0-6.17-1.21-7.85-3.64-1.57-2-2.34-5-2.34-9zm46.15 16.83c0 .89.18 1.45.54 1.72a5.72 5.72 0 001.51.74c.77.42 1.18.89 1.18 1.42 0 1.07-.77 1.6-2.25 1.6h-7.08c-1.51 0-2.25-.53-2.25-1.6 0-.56.35-1 1.06-1.33a4.5 4.5 0 001.63-.74 2.1 2.1 0 00.63-1.81v-16a5 5 0 00-2.79-4.83c-1.07-.38-1.63-.82-1.63-1.42s.62-1.33 1.84-2.25c1.69-1.33 2.9-2 3.64-2 1.13 0 1.93.77 2.37 2.34a56.22 56.22 0 011.28 6.13 18.83 18.83 0 013.76-5.72c1.72-1.83 3.43-2.75 5.15-2.75 2.52 0 3.77 1.33 3.77 4.06 0 1.65-.51 2.45-1.52 2.45a5 5 0 01-1.92-.68 5.22 5.22 0 00-2.16-.71c-1.6 0-3.2 1.39-4.83 4.21a12.66 12.66 0 00-1.93 7zm33.6-13a17.67 17.67 0 016.37 2.81 7.58 7.58 0 012.75 5.9 9.37 9.37 0 01-1.72 5.65 11.49 11.49 0 01-4.56 3.75 13.66 13.66 0 01-5.92 1.3 15.1 15.1 0 01-7.74-2.13c-2.43-1.48-3.67-3.08-3.67-4.8a2.15 2.15 0 01.53-1.34 1.52 1.52 0 011.22-.62c.56 0 1.39.62 2.46 2a10.59 10.59 0 003.32 2.59 10.47 10.47 0 004.5 1.19 8.33 8.33 0 004.8-1.48 4.72 4.72 0 002.14-4.07c0-1.87-.65-3.14-2-3.82a33.62 33.62 0 00-6.55-2.1 19.56 19.56 0 01-6.87-2.94c-1.57-1.21-2.37-3.14-2.37-5.83a8.72 8.72 0 013.55-7.08 11.84 11.84 0 017.73-2.46 16.34 16.34 0 018.15 2.13 3.11 3.11 0 011.39 3c0 2-.26 3-.86 3-.44 0-1.18-.47-2.19-1.48a17.51 17.51 0 00-3.11-2.49 7.73 7.73 0 00-4.12-1 8 8 0 00-4.44 1.21 3.85 3.85 0 00-1.9 3.5 3.34 3.34 0 001.42 2.93 15.55 15.55 0 004.06 1.81zm19.13-22.16a3.47 3.47 0 011.1-2.64 3.82 3.82 0 012.67-1 3.7 3.7 0 012.6 1 3.28 3.28 0 011 2.43 3.59 3.59 0 01-3.85 3.88 3.32 3.32 0 01-2.55-1.07 3.8 3.8 0 01-.97-2.6zm.86 40.64c-1.48 0-2.25-.5-2.25-1.48 0-.68.42-1.12 1.19-1.45a2.65 2.65 0 001.89-1.27 7.16 7.16 0 00.48-3V67.13a24.26 24.26 0 00-.51-4.09c-.14-.5-.91-.89-2.28-1.18-1-.33-1.51-.74-1.51-1.28a1 1 0 01.45-.86 17.11 17.11 0 014.17-2.16 17.4 17.4 0 012.58-1.15c.74 0 1.22.23 1.39.74a18.32 18.32 0 01.54 2.37c.14 1.63.2 4.09.2 7.4v13.31a16.1 16.1 0 00.33 4.14c.15.39.71.74 1.6 1.07s1.39.77 1.39 1.45c0 1-.71 1.48-2.13 1.48zm19.91-40.64a3.56 3.56 0 011.07-2.64 3.82 3.82 0 012.67-1 3.7 3.7 0 012.6 1 3.35 3.35 0 011.07 2.43 4 4 0 01-1.07 2.84 3.86 3.86 0 01-2.78 1 3.39 3.39 0 01-2.58-1.07 3.77 3.77 0 01-.98-2.56zm.86 40.64c-1.51 0-2.25-.5-2.25-1.48 0-.68.39-1.12 1.16-1.45a2.67 2.67 0 001.89-1.27 6.69 6.69 0 00.48-3V67.13a25.69 25.69 0 00-.48-4.09c-.18-.5-.95-.89-2.28-1.18-1-.33-1.54-.74-1.54-1.28a1.07 1.07 0 01.44-.86 17.28 17.28 0 014.21-2.16 18 18 0 012.55-1.15c.74 0 1.21.23 1.39.74a17.08 17.08 0 01.53 2.37c.15 1.63.21 4.09.21 7.4v13.31a16.1 16.1 0 00.33 4.14c.18.39.71.74 1.6 1.07s1.42.77 1.42 1.45c0 1-.74 1.48-2.16 1.48zm24.83 0a4.34 4.34 0 01-3.38-1.37 4.64 4.64 0 01-1.24-3.23 4.71 4.71 0 011.21-3.23 4.36 4.36 0 013.41-1.39 4.29 4.29 0 013.4 1.36 5 5 0 010 6.49 4.29 4.29 0 01-3.4 1.37z"/><path class="cls-6" d="M398.88 45.36a2.53 2.53 0 00-.54-1.9 9.41 9.41 0 00-1.95-1c-.71-.17-1.07-.5-1.07-1a1 1 0 01.18-.63 1.53 1.53 0 01.5-.41c.24-.15.42-.24.62-.36 2.67-1.36 4.63-2 5.78-2s1.51 1 1.51 2.78v20.81a13.3 13.3 0 0110.64-5.24 12.31 12.31 0 017.26 2.07 12.48 12.48 0 014.38 5.6 20.53 20.53 0 011.42 7.76c0 5.07-1.39 9.13-4.15 12.24A16 16 0 01418 88a16.35 16.35 0 01-6.54 1.36c-4.51 0-7.85-1.36-10.11-4.06q-2.44-3.2-2.45-11zm5 28.94c0 3.82.53 6.61 1.63 8.27a7.78 7.78 0 006.84 3.64 8.16 8.16 0 007.38-3.88 16.22 16.22 0 002.49-9 17.83 17.83 0 00-2.13-8.89 9.66 9.66 0 00-2.82-3.28 6.17 6.17 0 00-3.85-1.37 10 10 0 00-5.36 1.75 13.77 13.77 0 00-4.18 4.18zm32.86-11.17c-.24-1.86-.74-3.08-1.49-3.61s-1.18-1.1-1.18-1.4c0-.79.56-1.18 1.75-1.18h7c1 0 1.51.36 1.51 1.07a1.88 1.88 0 01-.83 1.3 6.28 6.28 0 00-1.3 1.42 5.31 5.31 0 00-.45 2.55 29 29 0 00.86 5.92 57.43 57.43 0 001.72 6.49 18.77 18.77 0 003.32 5.6c1.39 1.57 2.66 2.34 3.85 2.34 2.16 0 3.94-2.16 5.36-6.54 1.87-5.49 2.79-9.81 2.79-13a6.48 6.48 0 00-.57-3.38 4.76 4.76 0 00-1.54-1.33 1.7 1.7 0 01-1-1.51c0-.62.47-1 1.39-1h5.92c.92 0 1.4.27 1.4.86a2.42 2.42 0 01-.12 1 9.91 9.91 0 00-1.28 3.4l-1 5.69a64.62 64.62 0 01-7.49 20.92 39.74 39.74 0 01-7.04 9.26c-2.78 2.67-5.72 4-8.86 4-2.49 0-3.76-.92-3.76-2.7a2.46 2.46 0 01.68-1.71 2.24 2.24 0 011.72-.74 9.73 9.73 0 011.81.26 9.25 9.25 0 001.8.27c2 0 4.15-1.31 6.49-3.85a20.38 20.38 0 004.56-7.08 11.89 11.89 0 01-3.11.62c-3.29 0-6.13-2.31-8.59-7a40.69 40.69 0 01-3.85-13.75z"/></g><g class="cls-7"><path class="cls-8" d="M464.05 61.21l-4.5.71a3 3 0 00-.45-1.37 4.59 4.59 0 00-1.57-1.33 1.71 1.71 0 01-1-1.51c0-.62.47-1 1.39-1h5.92c.92 0 1.4.27 1.4.86a2.42 2.42 0 01-.12 1 10.13 10.13 0 00-1.07 2.64zm-22.25 3.17c-1.57.2-3.2.41-4.83.59l-.29-2c-.24-1.86-.74-3.08-1.48-3.61S434 58.24 434 58c0-.8.59-1.19 1.75-1.19h7.05c1 0 1.51.36 1.51 1.07a1.79 1.79 0 01-.83 1.3 6.31 6.31 0 00-1.27 1.42 5.28 5.28 0 00-.48 2.55c.01.34.04.75.07 1.23zm-15 1.74c-1.86.21-3.76.39-5.69.6a16.18 16.18 0 00-1.09-2.43 9.37 9.37 0 00-2.81-3.29 6.08 6.08 0 00-3.82-1.36 9.79 9.79 0 00-5.39 1.74 13.88 13.88 0 00-4.21 4.18v2.73c-1.66.11-3.34.26-5 .38V45.18a2.53 2.53 0 00-.54-1.9 9.23 9.23 0 00-1.95-1c-.71-.18-1.07-.51-1.07-1a1 1 0 01.18-.62 1.67 1.67 0 01.53-.42c.21-.15.42-.24.59-.35 2.7-1.37 4.63-2 5.81-2 1 0 1.48 1 1.48 2.79v20.79a13.33 13.33 0 0110.64-5.27 11.85 11.85 0 0111.64 7.7 17.51 17.51 0 01.74 2.22zm-63.31 4.8l-5.06.24V67a23.75 23.75 0 00-.51-4.09c-.15-.5-.92-.91-2.28-1.18-1-.33-1.51-.77-1.51-1.3a1.06 1.06 0 01.45-.86 17 17 0 014.17-2.14 16 16 0 012.58-1.18c.74 0 1.21.24 1.39.74a15.12 15.12 0 01.54 2.37c.14 1.66.23 4.12.23 7.41zm-20.76.89c-1.66.06-3.35.12-5.07.15V67a23.35 23.35 0 00-.47-4.09c-.15-.5-.92-.91-2.29-1.18-1-.33-1.51-.77-1.51-1.3a1 1 0 01.45-.86 15.79 15.79 0 014.17-2.14 16 16 0 012.58-1.18c.74 0 1.22.24 1.36.74a14.45 14.45 0 01.57 2.37c.15 1.66.21 4.12.21 7.41zm-20.18.56c-5.07.12-10.22.21-15.4.27a9.82 9.82 0 01-1.69-1c-1.57-1.21-2.37-3.17-2.37-5.83a8.72 8.72 0 013.55-7.08 11.85 11.85 0 017.7-2.49 16.45 16.45 0 018.18 2.13 3.26 3.26 0 011.39 3c0 2-.29 3-.86 3s-1.18-.48-2.19-1.49a17 17 0 00-3.11-2.48 7.75 7.75 0 00-4.15-1 8.09 8.09 0 00-4.44 1.21 3.87 3.87 0 00-1.9 3.5 3.32 3.32 0 001.43 2.93 15.91 15.91 0 004 1.81l3.65.83a18.49 18.49 0 016.25 2.69zm-39.76.42h-5v-6.07a5 5 0 00-2.79-4.83c-1.09-.36-1.63-.8-1.63-1.4s.62-1.36 1.84-2.25c1.69-1.36 2.9-2 3.64-2 1.13 0 1.93.8 2.37 2.34a50.52 50.52 0 011.28 6.16 19 19 0 013.77-5.74c1.72-1.86 3.44-2.78 5.15-2.78 2.52 0 3.77 1.36 3.77 4.09 0 1.66-.51 2.46-1.51 2.46a5.14 5.14 0 01-1.93-.68 5.25 5.25 0 00-2.16-.72c-1.57 0-3.2 1.4-4.8 4.21a12.48 12.48 0 00-2 7zm-20-.15l-5-.09v-7.43a16 16 0 00-.27-3.53 2.79 2.79 0 00-1.35-1.59c-.71-.26-1.07-.68-1.07-1.15s.51-1.1 1.51-1.54a8.74 8.74 0 014.3-1.07c1.3 0 1.93 1.39 1.93 4.18zm-21.13-.41c-1.69-.06-3.37-.09-5-.15v-6.22a13.86 13.86 0 00-.45-4.3 2.73 2.73 0 00-1.6-1.6c-.8-.29-1.18-.77-1.18-1.39s.77-1.13 2.28-1.63a12.29 12.29 0 013.52-.74c1.63 0 2.46 1.24 2.46 3.76zm-25.5-.92c-3.17-.12-6.28-.27-9.37-.42 6.4-5.27 9.63-8.71 9.63-10.31 0-.47-.38-1-1.09-1.57a1.51 1.51 0 01-.86-1.3c0-.62.5-1 1.51-1h7.82c1.15 0 1.72.36 1.72 1.07s-.51 1.27-1.51 1.69a11.18 11.18 0 00-2.88 1.75c-.62.59-1.69 1.71-3.23 3.43L214.64 68l-.86.86c.83.79 1.63 1.62 2.43 2.45zm-11.65-.54l-4.94-.26v-23a11.67 11.67 0 00-.42-3.73 3 3 0 00-1.95-1.54c-.8-.39-1.19-.77-1.19-1.07 0-.45.5-.92 1.51-1.39a12.43 12.43 0 015.6-2c.92 0 1.39.86 1.39 2.58zm-28.82-1.83c-3.29-.24-6.52-.51-9.72-.77a9.78 9.78 0 01-.27-2.4 8.73 8.73 0 013.56-7.08A11.86 11.86 0 01177 56.2a16.37 16.37 0 018.15 2.13 3.2 3.2 0 011.39 3c0 2-.27 3-.86 3-.44 0-1.18-.48-2.19-1.49a17.34 17.34 0 00-3.11-2.48 7.64 7.64 0 00-4.12-1 8 8 0 00-4.44 1.21 3.85 3.85 0 00-1.9 3.5 3.36 3.36 0 001.39 2.93 15.79 15.79 0 004.09 1.81zm-28.86-2.55c-1.3-.12-2.58-.27-3.82-.41 2.67-2.55 4-4.36 4-5.4 0-.47-.36-1-1.07-1.57a1.53 1.53 0 01-.86-1.3c0-.62.51-1 1.52-1h7.82c1.15 0 1.71.36 1.71 1.07s-.5 1.27-1.51 1.69a11.28 11.28 0 00-2.87 1.75c-.62.59-1.69 1.71-3.23 3.43zm-11.73-1.27l-4.92-.63V47.55a12 12 0 00-.41-3.73 3 3 0 00-2-1.54c-.8-.39-1.18-.77-1.18-1.07 0-.45.5-.92 1.51-1.39a12.45 12.45 0 015.57-2c1 0 1.39.86 1.39 2.58zM112.25 62c-3.64-.57-7.17-1.16-10.55-1.75h3.3a6.45 6.45 0 004.54-1.39A2.19 2.19 0 01111 58c.78 0 1.19 1.37 1.25 4zm-20-3.53c-2-.41-4-.83-5.92-1.24V46c0-2-.71-3.2-2.13-3.44-1.19-.24-1.81-.77-1.81-1.6 0-1 .8-1.51 2.37-1.51h29.45c1.3.36 2.07 1.42 2.37 3.23l.56 4.09c0 .71-.36 1.06-1.1 1.06a1.39 1.39 0 01-1.15-.56c-2.4-2.93-5-4.38-7.62-4.38H96.61c-1.66 0-2.79.38-3.44 1.15a6.87 6.87 0 00-1 4.12zm243.35-11a3.46 3.46 0 011.09-2.64 3.82 3.82 0 012.67-1 3.72 3.72 0 012.61 1 3.31 3.31 0 011 2.43 3.6 3.6 0 01-3.85 3.88 3.4 3.4 0 01-2.55-1.06 3.66 3.66 0 01-1-2.53zm20.73 0a3.47 3.47 0 011.1-2.64 3.84 3.84 0 012.7-1 3.57 3.57 0 012.57 1 3.24 3.24 0 011.07 2.43 3.62 3.62 0 01-3.88 3.88 3.4 3.4 0 01-2.55-1.06 3.81 3.81 0 01-1.04-2.53z"/></g><path class="cls-9" d="M36.38 54.19h50.24v33.68H36.38V54.19z"/><path class="cls-10" d="M36.38 58.81h49.98v-.95H36.38v.95z"/><path class="cls-11" d="M36.29 60.88h49.98v-.98H36.29v.98z"/><path class="cls-12" d="M36.14 57.09h49.98v-.98H36.14v.98z"/><path class="cls-13" d="M61.09 87.57v-11.4a6.8 6.8 0 016.19-3.91c4.53 0 5.84 3.25 5.84 4.88V87.9z"/><path class="cls-14" d="M36.62 54.19l.06-4.27h4.83v2.4h2.87v-2.4h4.65v2.4h3.02l.18-2.4h4.65v2.4h3.2v-2.4h4.8v2.4h2.73v-2.4h4.65v2.4l2.87.18v-2.58h4.47v2.4h2.91v-2.4h4.29l.03 4.27H36.62z"/><g id="_2490195844240" data-name="2490195844240"><path class="cls-15" d="M17.63 34.28h33.39v53.65H17.63V34.28z"/><path class="cls-16" d="M14.07 35.25v-9.33h5.54v4.86h3.5v-4.86h5.42v4.86h3.79v-4.86h5.33v4.86h3.5v-4.86h4.71v4.86h3.5v-4.86h4.83v9.33H14.07z"/><path class="cls-17" d="M17.63 41.12h33.33v-1.24H17.63v1.24z"/><path class="cls-18" d="M17.66 43.84h33.3v-1.27h-33.3v1.27z"/><path class="cls-19" d="M17.69 38.84h33.33v-1.28H17.69v1.28z"/><path class="cls-20" d="M22 55.43v-4.65a2.75 2.75 0 012.52-1.6 2.14 2.14 0 012.4 2v4.36z"/><path class="cls-21" d="M32.29 55.49v-5.16a3.07 3.07 0 012.79-1.74 2.36 2.36 0 012.66 2.19v4.86z"/><path class="cls-22" d="M43.1 55.61V51a2.82 2.82 0 012.52-1.6 2.14 2.14 0 012.4 2v4.39z"/><path class="cls-23" d="M30.9 80.52v-7.73a4.62 4.62 0 014.21-2.67c3.08 0 4 2.23 4 3.32v7.29z"/><path class="cls-24" d="M17.69 87.93h33.29v-1.28H17.69v1.28z"/></g><g id="_2490195874864" data-name="2490195874864"><path class="cls-25" d="M3 97.59s22-19.5 61.85-13.39C126.59 93.65 16.38 79 3 97.59z"/><path id="_1-2" data-name="1" class="cls-4" d="M64.88 84l-.06.35-3.67-.47-3.59-.36-3.46-.23-3.35-.09h-3.26l-3.14.15-3.05.2-2.91.33-2.81.41-2.7.48-2.6.53-2.49.62-2.34.65-2.25.69-2.14.74-2 .77-1.93.77-1.77.77-1.66.8-1.54.77-1.43.77-1.3.74-1.18.71-1.07.68-1 .62-.79.6-.68.47-.56.44-.45.36-.32.24-.18.17h-.06l-.27-.26.13-.04.18-.15.29-.23.44-.35.56-.45.71-.5.82-.6 1-.62 1-.69 1.18-.71 1.34-.74 1.48-.77 1.57-.8L15.2 90l1.8-.8 1.9-.77 2.1-.77 2.13-.74 2.25-.68 2.37-.68 2.44-.56 2.61-.57 2.72-.47 2.82-.39 2.93-.32 3-.24 3.17-.12h3.26l3.38.09 3.46.24 3.59.35 3.7.51zm-62 13.42l.27.26-.3-.23 1.57-1.69 2.07-1.46L9 93l3-1.13 3.32-1 3.64-.83 3.91-.71 4.13-.57 4.29-.45 4.42-.38 4.5-.27 4.53-.21 4.51-.11 4.41-.06h8.44l3.92.06 3.64.06h3.35l3 .06 2.52.06h3.64l1-.06h.21-.15l-1-.26-1.75-.36-2.55-.44-3.43-.57-4.33-.68-5.3-.83.06-.35 5.3.8 4.33.71 3.43.56 2.55.45 1.78.35 1 .27.38.44-.53.24-1 .06h-6.19l-3-.06-3.32-.09-3.66-.04h-3.92L58 87.6h-4.33l-4.41.09-4.51.12-4.5.21-4.5.26-4.42.36-4.33.5-4.12.57-3.88.71-3.61.83-3.32 1-2.89 1.1-2.51 1.27-2 1.45-1.51 1.6zm.27.26l-1.28 1.15 1-1.36z"/><path class="cls-26" d="M1.13 96.64S23.11 77.17 63 83.28C124.72 92.73 14.55 78 1.13 96.64z"/><path id="_1-3" data-name="1" class="cls-5" d="M63 83.07l-.06.38-3.66-.45-3.58-.4-3.47-.21-3.35-.12h-3.26l-3.14.12-3 .23-2.9.33-2.82.39-2.76.5-2.61.56L26 85l-2.37.65-2.25.71-2.13.74-2 .74-1.89.77-1.81.8-1.66.77-1.54.8-1.42.77-1.31.74-1.18.71-1.07.65-1 .63-.84.52-.69.5-.56.5-.44.32-.33.27-.18.15-.06.06-.27-.28.09-.06.17-.18.34-.28.4-.34.6-.41.68-.51.83-.56.95-.62 1.06-.68 1.19-.72 1.33-.77 1.42-.74 1.57-.8 1.66-.8 1.81-.77 1.89-.8 2-.74 2.22-.74 2.25-.71 2.37-.65 2.49-.64 2.61-.54 2.72-.46 2.82-.41 2.93-.33 3.05-.21 3.17-.15h3.26l3.38.09 3.47.24 3.61.36 3.67.47zM1 96.52l.26.27-.26-.24 1.57-1.69 2.07-1.48 2.55-1.3 2.93-1.16 3.35-1 3.61-.83 3.92-.66 4.15-.59 4.3-.47 4.38-.37 4.51-.27 4.53-.2 4.5-.12 4.42-.09h12.35l3.64.06 3.35.09 3 .06h7.41-.18l-1-.26-1.79-.27-2.57-.47-3.42-.53-4.32-.72-5.26-.83.06-.38 5.31.83 4.32.68 3.44.56 2.55.48 1.72.38 1 .27.39.41-.54.27-1 .06h-3.64l-2.55-.06-3-.06-3.32-.06-3.64-.06H51.75l-4.42.06-4.5.12-4.51.21-4.5.27-4.41.38-4.3.47-4.11.51-3.88.71-3.61.83-3.32 1-2.87 1.07-2.49 1.3-2.05 1.43-1.48 1.63zm.26.27L0 97.88l1-1.33z"/></g><path class="cls-27" d="M54.57 68.52V65a2.11 2.11 0 011.93-1.22 1.62 1.62 0 011.8 1.51v3.32z"/><path class="cls-28" d="M69.18 68.4v-3.52a2.09 2.09 0 011.89-1.22 1.62 1.62 0 011.81 1.52v3.34z"/><path class="cls-29" d="M75.78 68.32v-3.53a2.12 2.12 0 011.93-1.21 1.62 1.62 0 011.8 1.51v3.31z"/><path class="cls-30" d="M61.71 68.43v-3.52a2.09 2.09 0 011.9-1.19 1.64 1.64 0 011.83 1.51v3.32z"/><path class="cls-31" d="M119.98 35.16v-9.33h-5.54v4.89h-3.46v-4.89h-5.45v4.89h-3.8v-4.89H96.4v4.89h-3.49v-4.89h-4.72v4.89h-3.46v-4.89H79.9v9.33h40.08z"/><path class="cls-32" d="M116.37 38.78h-33.3v-1.27h33.3v1.27z"/><path class="cls-33" d="M98.89 13.72V3.44c7.94-10.28 15.88 6.84 23.82-3.44v10.28c-7.94 10.28-15.88-6.84-23.82 3.44z"/><path class="cls-34" d="M98.42 3.14h1.09v28.09h-1.09V3.14z"/></g><path class="cls-2" d="M418.4 99.07s-12.68-10.64-38.78-10.93c-40.35-.48 31.55 1.36 38.78 10.93z"/><path id="_1-4" data-name="1" class="cls-3" d="M379.62 88l2.43.06 2.34.09 2.25.17 2.16.21 2.11.27 2 .32 2 .33 1.86.38 1.78.39 1.72.44 1.63.45 1.54.47 1.48.51 1.39.47 1.33.5 1.25.51L410 94l1.1.5 1 .51 1 .47.9.52.8.44.72.42.65.38.56.39.47.32.42.27.35.23.24.21.21.15.12.09-.24.3-.12-.09L418 99l-.26-.18-.33-.27-.41-.26-.48-.33-.56-.35-.62-.39-.71-.41-.8-.45-.86-.47-.92-.48-1-.47-1.06-.5-1.19-.51-1.21-.5-1.34-.5-1.39-.51-1.48-.47-1.54-.48-1.72-.47-1.69-.42-1.78-.41-1.86-.39-1.93-.32-2-.3-2.08-.26-2.16-.21-2.25-.18-2.37-.14-2.4-.06zm38.9 11l-.27.27-.83-.86-1.18-.8-1.52-.8L413 96l-2.05-.69-2.28-.65-2.51-.66-2.57-.59-2.73-.56-2.81-.51-2.88-.47-2.9-.45-2.87-.42-2.85-.36-2.75-.35-2.67-.3-2.52-.29-2.34-.27-2.13-.21-1.9-.21-1.66-.17-1.33-.15-1-.15-.65-.09-.35-.24.32-.29h8.62l3.44.06v.35h-11.36l-.65.06v-.18h.09l.62.11 1 .12 1.33.15 1.63.18 1.9.21 2.16.23 2.34.27 2.52.27 2.67.32 2.75.33 2.84.38 2.88.42 2.9.44 2.88.48 2.81.5 2.73.56 2.6.57 2.46.62L411 95l2.08.71 1.8.74 1.54.8 1.25.86.89.89-.27.27zm0 0l1 1.3-1.24-1z"/><path class="cls-4" d="M95.6 76.64c0 3 .36 5.1 1 6.25s2.31 1.75 4.83 1.75h10c2.67 0 5.33-1.22 8-3.61l.83-.8a7.24 7.24 0 01.89-.69 1.24 1.24 0 01.74-.23c.71 0 1.07.38 1.07 1.15a13.57 13.57 0 01-.3 2.11c-.18 1-.3 1.77-.33 2.19a7.33 7.33 0 01-.83 2.84c-.23.27-1.06.42-2.49.48h-30.9c-1.54 0-2.34-.51-2.34-1.51 0-.8.53-1.37 1.6-1.6a4.08 4.08 0 002-1.28 7.05 7.05 0 00.34-2.69V46c0-2-.72-3.17-2.14-3.41-1.18-.27-1.8-.8-1.8-1.6 0-1 .8-1.51 2.34-1.51h29.38c1.28.36 2.08 1.42 2.34 3.2l.57 4.09a.94.94 0 01-1.07 1.06 1.5 1.5 0 01-1.18-.53c-2.4-2.93-4.92-4.38-7.62-4.38H100a4.33 4.33 0 00-3.44 1.15 6.69 6.69 0 00-.92 4.06v12.13h12.71a6.37 6.37 0 004.5-1.39 2.12 2.12 0 011.48-.83c.86 0 1.28 1.6 1.28 4.8 0 1.92-.53 2.87-1.6 2.87a2.17 2.17 0 01-1.48-.83 5.5 5.5 0 00-3.88-1.19h-13zM148.45 68l-.86.86a64.94 64.94 0 0111.11 14.3 5 5 0 001.93 1.92c.8.39 1.18.89 1.18 1.49a1.68 1.68 0 01-.32 1.24 2.25 2.25 0 01-1.28.27h-7.58c-1.21 0-1.84-.45-1.84-1.31 0-.53.36-1 1.07-1.45s1.1-.86 1.1-1.3c0-1.28-1.1-3.23-3.23-6a49.49 49.49 0 00-5.54-6.22l-5.78 4.74v3.29a10.67 10.67 0 00.53 4.27 2.94 2.94 0 001.48 1c.86.45 1.31 1 1.31 1.49a1.28 1.28 0 01-.57 1.06 1.93 1.93 0 01-1.27.45h-7.58c-1.51 0-2.25-.51-2.25-1.51a1.45 1.45 0 011.18-1.4c1-.32 1.54-.65 1.69-1 .38-.56.56-2 .56-4.38V47.55a11.82 11.82 0 00-.41-3.7 3.08 3.08 0 00-2-1.55c-.8-.38-1.18-.74-1.18-1.06s.5-.89 1.51-1.39a12.55 12.55 0 015.59-1.93c.92 0 1.39.86 1.39 2.58v32.17q11.86-9.47 11.85-12.09c0-.5-.36-1-1.07-1.6a1.49 1.49 0 01-.86-1.27c0-.65.51-1 1.51-1h7.8c1.15 0 1.71.36 1.71 1.07s-.5 1.3-1.51 1.69a11.33 11.33 0 00-2.82 1.77c-.62.59-1.69 1.71-3.23 3.4zm33.72 1.69a17.15 17.15 0 016.34 2.81 7.52 7.52 0 012.75 5.87 9.4 9.4 0 01-1.72 5.63 11 11 0 01-4.54 3.72 13.47 13.47 0 01-5.89 1.3 15.07 15.07 0 01-7.71-2.13q-3.65-2.17-3.64-4.8a2.08 2.08 0 01.5-1.3 1.53 1.53 0 011.22-.62c.59 0 1.39.62 2.46 1.92a11.58 11.58 0 003.31 2.67 10.84 10.84 0 004.48 1.18 8.23 8.23 0 004.8-1.51 4.67 4.67 0 002.16-4.06 3.8 3.8 0 00-2-3.79 33.11 33.11 0 00-6.51-2.13 19.11 19.11 0 01-6.88-2.9c-1.57-1.22-2.34-3.15-2.34-5.84a8.59 8.59 0 013.53-7 11.83 11.83 0 017.7-2.49 16.45 16.45 0 018.15 2.13 3.18 3.18 0 011.39 3c0 2-.3 3-.89 3s-1.18-.48-2.16-1.46a15.61 15.61 0 00-3.11-2.45 7.38 7.38 0 00-4.12-1 8 8 0 00-4.45 1.17 3.89 3.89 0 00-1.87 3.5 3.23 3.23 0 001.42 2.9 15.26 15.26 0 004 1.81zM217.6 68l-.83.86a66.09 66.09 0 0111.08 14.34 5 5 0 002 1.92c.77.39 1.19.89 1.19 1.49a1.65 1.65 0 01-.36 1.24 2.15 2.15 0 01-1.27.27h-7.58c-1.22 0-1.81-.45-1.81-1.31 0-.53.35-1 1.06-1.45s1.07-.86 1.07-1.3c0-1.28-1.07-3.23-3.2-6a51 51 0 00-5.57-6.22l-5.77 4.74v3.29c0 2.22.17 3.64.56 4.27a2.81 2.81 0 001.48 1c.86.45 1.27 1 1.27 1.49a1.27 1.27 0 01-.56 1.06 1.9 1.9 0 01-1.27.45h-7.59c-1.48 0-2.22-.51-2.22-1.51a1.46 1.46 0 011.16-1.4c1-.32 1.54-.65 1.68-1 .39-.56.57-2 .57-4.38v-32.3a11.45 11.45 0 00-.42-3.7 3 3 0 00-1.95-1.55c-.77-.38-1.19-.74-1.19-1.06s.51-.89 1.54-1.39a12.5 12.5 0 015.54-1.93c1 0 1.4.86 1.4 2.58v32.17q11.87-9.47 11.87-12.09a2.26 2.26 0 00-1.06-1.6 1.43 1.43 0 01-.86-1.27c0-.65.5-1 1.48-1h7.79c1.16 0 1.75.36 1.75 1.07s-.5 1.3-1.54 1.69a12.34 12.34 0 00-2.84 1.75c-.63.59-1.69 1.71-3.23 3.4zm22-2.13a13.9 13.9 0 00-.44-4.27 2.76 2.76 0 00-1.6-1.6c-.77-.29-1.19-.77-1.19-1.39s.77-1.13 2.28-1.63a13.55 13.55 0 013.5-.74c1.66 0 2.46 1.24 2.46 3.76v16.73a15.05 15.05 0 00.77 5.66 5.62 5.62 0 005.45 3 10.71 10.71 0 008.41-3.56 4.66 4.66 0 001.22-2.13 25.7 25.7 0 00.2-3.64v-11a16.29 16.29 0 00-.26-3.5A2.72 2.72 0 00259 60c-.71-.29-1.06-.68-1.06-1.18s.5-1.07 1.51-1.51a8.64 8.64 0 014.26-1.07c1.31 0 1.93 1.39 1.93 4.18V80a12.59 12.59 0 00.44 4.26 3.53 3.53 0 001.72 1c.92.42 1.4.89 1.4 1.42s-.15 1.07-.39 1.22a2.21 2.21 0 01-1.33.27h-4.58c-.54 0-1-.45-1.4-1.31a8.71 8.71 0 01-.53-3.2c-3.41 3.65-7.14 5.45-11.23 5.45-3.52 0-6.13-1.21-7.82-3.61-1.57-2-2.34-5-2.34-9zm46 16.8a2 2 0 00.53 1.68 5.25 5.25 0 001.51.77c.77.42 1.16.86 1.16 1.4 0 1.06-.74 1.6-2.22 1.6h-7.08c-1.49 0-2.23-.54-2.23-1.6 0-.57.36-1 1.07-1.31a4.5 4.5 0 001.66-.81 2.07 2.07 0 00.62-1.77V66.69a5 5 0 00-2.78-4.83c-1.07-.36-1.6-.8-1.6-1.37s.59-1.36 1.8-2.25c1.69-1.36 2.91-2 3.65-2 1.12 0 1.89.8 2.34 2.34a49.46 49.46 0 011.27 6.1A19.41 19.41 0 01289 59q2.53-2.75 5.16-2.75c2.49 0 3.73 1.36 3.73 4.06 0 1.66-.5 2.46-1.51 2.46a5.11 5.11 0 01-1.92-.68 5.14 5.14 0 00-2.14-.72c-1.6 0-3.2 1.4-4.83 4.18a12.78 12.78 0 00-1.92 7zm33.5-13a16.83 16.83 0 016.31 2.81 7.53 7.53 0 012.79 5.87 9.42 9.42 0 01-1.76 5.65 11.11 11.11 0 01-4.53 3.73A13.57 13.57 0 01316 89a15 15 0 01-7.7-2.13c-2.46-1.45-3.67-3-3.67-4.8a1.91 1.91 0 01.53-1.3 1.49 1.49 0 011.22-.62c.56 0 1.39.62 2.42 1.92a12 12 0 003.32 2.67 11 11 0 004.51 1.18 8.2 8.2 0 004.79-1.51 4.7 4.7 0 002.14-4.06 3.8 3.8 0 00-2-3.79 32.42 32.42 0 00-6.56-2.11 19.09 19.09 0 01-6.85-2.9c-1.57-1.22-2.37-3.15-2.37-5.84a8.62 8.62 0 013.56-7 11.69 11.69 0 017.67-2.49 16.37 16.37 0 018.15 2.13 3.18 3.18 0 011.39 3c0 2-.3 3-.89 3-.44 0-1.15-.48-2.16-1.46a15.06 15.06 0 00-3.11-2.45 7.31 7.31 0 00-4.12-1 8 8 0 00-4.41 1.21 3.91 3.91 0 00-1.9 3.5 3.23 3.23 0 001.42 2.9 15.07 15.07 0 004.06 1.81zm19.08-22.1a3.49 3.49 0 011.07-2.61 3.82 3.82 0 012.67-1 3.58 3.58 0 012.57 1 3.19 3.19 0 011.07 2.43 3.78 3.78 0 01-1.07 2.82 3.75 3.75 0 01-2.78 1.06 3.27 3.27 0 01-2.55-1.09 3.77 3.77 0 01-.99-2.63zm.82 40.51c-1.48 0-2.22-.51-2.22-1.49a1.52 1.52 0 011.16-1.42 2.67 2.67 0 001.89-1.3 6.85 6.85 0 00.48-2.93v-14a29.69 29.69 0 00-.48-4c-.18-.51-.95-.89-2.28-1.19-1-.33-1.54-.74-1.54-1.27a1.08 1.08 0 01.44-.86 16.25 16.25 0 014.18-2.14 16.51 16.51 0 012.55-1.18c.77 0 1.21.27 1.39.74a15.12 15.12 0 01.54 2.37c.14 1.63.2 4.09.2 7.38V80a16.42 16.42 0 00.33 4.15 3 3 0 001.6 1.06c.95.3 1.39.77 1.39 1.42 0 1-.71 1.49-2.13 1.49zm19.85-40.53a3.49 3.49 0 011.07-2.61 3.82 3.82 0 012.66-1 3.59 3.59 0 012.58 1 3.19 3.19 0 011.07 2.43 3.78 3.78 0 01-1.07 2.82 3.75 3.75 0 01-2.78 1.06 3.27 3.27 0 01-2.55-1.09 3.77 3.77 0 01-.98-2.61zm.86 40.53c-1.51 0-2.25-.51-2.25-1.49a1.5 1.5 0 011.15-1.42 2.69 2.69 0 001.9-1.3 6.88 6.88 0 00.47-2.93v-14a28.68 28.68 0 00-.47-4c-.18-.51-.95-.89-2.28-1.19-1-.33-1.54-.74-1.54-1.27a1.08 1.08 0 01.44-.86 16.25 16.25 0 014.18-2.14 16.51 16.51 0 012.55-1.18c.77 0 1.21.27 1.39.74a14.25 14.25 0 01.53 2.37c.15 1.63.21 4.09.21 7.38V80a16.42 16.42 0 00.33 4.15 3 3 0 001.6 1.06c.94.3 1.39.77 1.39 1.42 0 1-.71 1.49-2.13 1.49zm24.74 0a4.32 4.32 0 01-3.35-1.4 4.46 4.46 0 01-1.27-3.2 4.51 4.51 0 011.24-3.22 4.34 4.34 0 013.38-1.4 4.29 4.29 0 013.4 1.37 5 5 0 010 6.45 4.3 4.3 0 01-3.4 1.4zm16.71-42.87a2.49 2.49 0 00-.54-1.9 10.07 10.07 0 00-1.92-1c-.71-.17-1.1-.5-1.1-1a.94.94 0 01.18-.62 2.09 2.09 0 01.53-.42l.6-.33c2.69-1.36 4.62-2 5.77-2s1.51.92 1.51 2.76v20.74a13.25 13.25 0 0110.61-5.24 12.29 12.29 0 017.2 2.1 12.44 12.44 0 014.35 5.57 20.38 20.38 0 011.42 7.73c0 5-1.36 9.1-4.14 12.18a15.68 15.68 0 01-5.45 3.88 16.33 16.33 0 01-6.52 1.34c-4.47 0-7.82-1.33-10-4-1.63-2.11-2.46-5.75-2.46-10.94zm5 28.82q0 5.77 1.63 8.27a7.7 7.7 0 006.82 3.64 8.19 8.19 0 007.39-3.88 16.18 16.18 0 002.49-8.94 17.8 17.8 0 00-2.13-8.89 9.78 9.78 0 00-2.84-3.23 6.06 6.06 0 00-3.82-1.36 9.79 9.79 0 00-5.33 1.74 13.68 13.68 0 00-4.18 4.15zm32.74-11.11c-.24-1.86-.74-3.08-1.48-3.61s-1.19-1.1-1.19-1.39c0-.8.6-1.19 1.75-1.19h7c1 0 1.51.36 1.51 1.07a1.8 1.8 0 01-.83 1.3 7.34 7.34 0 00-1.27 1.42 5.22 5.22 0 00-.47 2.55 31.23 31.23 0 00.85 5.9c.6 2.66 1.16 4.8 1.72 6.49a20 20 0 003.37 5.54c1.39 1.54 2.67 2.34 3.85 2.34 2.16 0 3.91-2.17 5.33-6.52 1.87-5.48 2.79-9.78 2.79-13a6.9 6.9 0 00-.56-3.35 4.79 4.79 0 00-1.57-1.33 1.63 1.63 0 01-1-1.48c0-.65.47-1 1.39-1H466c.91 0 1.39.3 1.39.86a2.3 2.3 0 01-.12 1A9.65 9.65 0 00466 62l-1 5.65a65 65 0 01-7.47 20.86 39.13 39.13 0 01-7.11 9.18c-2.78 2.67-5.71 4-8.83 4-2.48 0-3.76-.88-3.76-2.66a2.49 2.49 0 01.68-1.72 2.27 2.27 0 011.72-.74 9.31 9.31 0 011.78.27 10.08 10.08 0 001.84.26c2 0 4.11-1.27 6.42-3.82a20.28 20.28 0 004.57-7.08 11.6 11.6 0 01-3.08.62q-4.94 0-8.57-6.93a40.37 40.37 0 01-3.85-13.72z"/><path class="cls-5" d="M92.28 76.88q0 4.53 1.07 6.31c.71 1.15 2.31 1.75 4.86 1.75h10c2.7 0 5.36-1.22 8.06-3.65.24-.24.5-.5.83-.8a8.12 8.12 0 01.86-.68 1.35 1.35 0 01.77-.24c.71 0 1.07.39 1.07 1.19a13.79 13.79 0 01-.3 2.07 20.51 20.51 0 00-.33 2.19 8.14 8.14 0 01-.83 2.88c-.23.26-1.06.41-2.51.47h-31c-1.6 0-2.37-.5-2.37-1.51 0-.8.53-1.36 1.6-1.6a3.93 3.93 0 002-1.3 6.47 6.47 0 00.33-2.67V46.22c0-2.08-.71-3.2-2.14-3.44-1.21-.27-1.8-.8-1.8-1.6 0-1 .77-1.51 2.37-1.51h29.44c1.31.35 2.08 1.42 2.37 3.2l.54 4.12a.94.94 0 01-1.07 1.06 1.51 1.51 0 01-1.18-.56c-2.37-2.93-4.92-4.39-7.62-4.39H96.67a4.33 4.33 0 00-3.44 1.16 6.68 6.68 0 00-1 4.09v12.12H105a6.23 6.23 0 004.5-1.4 2.27 2.27 0 011.49-.86c.88 0 1.33 1.6 1.33 4.83 0 1.93-.56 2.91-1.63 2.91a2.26 2.26 0 01-1.48-.86 5.53 5.53 0 00-3.88-1.19H92.28zm53.06-8.68l-.86.86a65.81 65.81 0 0111.14 14.39 4.85 4.85 0 001.93 1.9c.8.42 1.18.89 1.18 1.51a1.75 1.75 0 01-.32 1.25 2.35 2.35 0 01-1.28.26h-7.61c-1.22 0-1.84-.44-1.84-1.3 0-.53.36-1 1.1-1.45s1.06-.89 1.06-1.34c0-1.24-1.06-3.23-3.22-6a51.69 51.69 0 00-5.57-6.25l-5.81 4.74v3.32c0 2.22.18 3.64.56 4.26a2.77 2.77 0 001.48 1c.86.47 1.31 1 1.31 1.51a1.38 1.38 0 01-.57 1.07 2 2 0 01-1.3.44h-7.58c-1.51 0-2.25-.5-2.25-1.51 0-.65.38-1.12 1.18-1.42 1-.33 1.54-.62 1.69-.92.38-.59.56-2 .56-4.41V47.73a12.12 12.12 0 00-.41-3.74 3.09 3.09 0 00-2-1.54c-.77-.38-1.15-.74-1.15-1.06s.5-.92 1.51-1.4a12.38 12.38 0 015.57-2c1 0 1.39.86 1.39 2.58v32.34q11.91-9.47 11.91-12.15a2.27 2.27 0 00-1.07-1.57 1.53 1.53 0 01-.86-1.3c0-.62.51-1 1.51-1h7.8c1.18 0 1.74.36 1.74 1.07s-.5 1.27-1.51 1.69a11.58 11.58 0 00-2.87 1.74c-.62.6-1.69 1.72-3.23 3.44zm33.83 1.69a17.57 17.57 0 016.34 2.81 7.59 7.59 0 012.79 5.9 9.39 9.39 0 01-1.75 5.65A11.35 11.35 0 01182 88a13.61 13.61 0 01-5.93 1.3 15.06 15.06 0 01-7.7-2.13c-2.46-1.48-3.67-3.08-3.67-4.8a2.07 2.07 0 01.5-1.34 1.56 1.56 0 011.22-.62c.59 0 1.42.62 2.45 2a11.06 11.06 0 003.31 2.59 10.65 10.65 0 004.51 1.19 8.41 8.41 0 004.82-1.48 4.71 4.71 0 002.17-4.09c0-1.87-.65-3.14-2-3.82a34 34 0 00-6.54-2.1 20 20 0 01-6.91-2.94c-1.57-1.21-2.34-3.14-2.34-5.83a8.73 8.73 0 013.56-7.08 11.81 11.81 0 017.7-2.46 16.56 16.56 0 018.18 2.13 3.19 3.19 0 011.39 3c0 2-.3 3-.89 3-.44 0-1.18-.47-2.16-1.48a17.87 17.87 0 00-3.11-2.49 7.85 7.85 0 00-4.15-1 8 8 0 00-4.41 1.27 3.91 3.91 0 00-1.9 3.5 3.31 3.31 0 001.42 2.93 15.86 15.86 0 004.06 1.81zm35.55-1.69l-.85.86A65.18 65.18 0 01225 83.45a4.78 4.78 0 002 1.9c.77.42 1.16.89 1.16 1.51a1.7 1.7 0 01-.33 1.25 2.27 2.27 0 01-1.27.26h-7.66c-1.21 0-1.84-.44-1.84-1.3 0-.53.39-1 1.1-1.45s1.07-.89 1.07-1.34c0-1.24-1.07-3.23-3.23-6a50.85 50.85 0 00-5.57-6.25l-5.81 4.74v3.32c0 2.22.18 3.64.57 4.26a2.72 2.72 0 001.48 1c.86.47 1.3 1 1.3 1.51a1.31 1.31 0 01-.56 1.07 2 2 0 01-1.31.44h-7.58c-1.51 0-2.25-.5-2.25-1.51 0-.65.38-1.12 1.18-1.42 1-.33 1.54-.62 1.69-.92.39-.59.56-2 .56-4.41V47.73a11.81 11.81 0 00-.41-3.74 3.1 3.1 0 00-2-1.54c-.8-.38-1.18-.74-1.18-1.06s.5-.92 1.51-1.4a12.42 12.42 0 015.57-2c1 0 1.39.86 1.39 2.58v32.34q11.91-9.47 11.91-12.15a2.25 2.25 0 00-1.06-1.57 1.51 1.51 0 01-.86-1.3c0-.62.5-1 1.51-1h7.82c1.15 0 1.72.36 1.72 1.07s-.51 1.27-1.51 1.69a11.48 11.48 0 00-2.88 1.74c-.62.6-1.69 1.72-3.23 3.44zm22.05-2.14a12.5 12.5 0 00-.48-4.29 2.5 2.5 0 00-1.57-1.6c-.8-.3-1.18-.77-1.18-1.39s.74-1.13 2.28-1.63a11.79 11.79 0 013.49-.74c1.66 0 2.49 1.24 2.49 3.76V77a15.52 15.52 0 00.74 5.68 5.7 5.7 0 005.48 3 10.84 10.84 0 008.45-3.56 4.63 4.63 0 001.21-2.12 24.33 24.33 0 00.21-3.65v-11a15.57 15.57 0 00-.27-3.49 2.71 2.71 0 00-1.36-1.63c-.71-.3-1.07-.68-1.07-1.19s.51-1.06 1.51-1.51a8.81 8.81 0 014.3-1.12q1.95 0 1.95 4.17v19.65a12.57 12.57 0 00.45 4.29 3.48 3.48 0 001.72.92c.92.44 1.39.89 1.39 1.45a1.55 1.55 0 01-.36 1.22 2.47 2.47 0 01-1.36.26h-4.62c-.53 0-1-.44-1.39-1.3a8.59 8.59 0 01-.54-3.23c-3.4 3.67-7.16 5.48-11.25 5.48-3.56 0-6.17-1.21-7.85-3.64-1.57-2-2.34-5-2.34-9zm46.15 16.83c0 .89.18 1.45.54 1.72a5.72 5.72 0 001.51.74c.77.42 1.18.89 1.18 1.42 0 1.07-.77 1.6-2.25 1.6h-7.08c-1.51 0-2.25-.53-2.25-1.6 0-.56.35-1 1.06-1.33a4.5 4.5 0 001.63-.74 2.1 2.1 0 00.63-1.81v-16a5 5 0 00-2.79-4.83c-1.07-.38-1.63-.82-1.63-1.42s.62-1.33 1.84-2.25c1.69-1.33 2.9-2 3.64-2 1.13 0 1.93.77 2.37 2.34a56.22 56.22 0 011.28 6.13 18.83 18.83 0 013.76-5.72c1.72-1.83 3.43-2.75 5.15-2.75 2.52 0 3.77 1.33 3.77 4.06 0 1.65-.51 2.45-1.52 2.45a5 5 0 01-1.92-.68 5.22 5.22 0 00-2.16-.71c-1.6 0-3.2 1.39-4.83 4.21a12.66 12.66 0 00-1.93 7zm33.6-13a17.67 17.67 0 016.37 2.81 7.58 7.58 0 012.75 5.9 9.37 9.37 0 01-1.72 5.65 11.49 11.49 0 01-4.56 3.75 13.66 13.66 0 01-5.92 1.3 15.1 15.1 0 01-7.74-2.13c-2.43-1.48-3.67-3.08-3.67-4.8a2.15 2.15 0 01.53-1.34 1.52 1.52 0 011.22-.62c.56 0 1.39.62 2.46 2a10.59 10.59 0 003.32 2.59 10.47 10.47 0 004.5 1.19 8.33 8.33 0 004.8-1.48 4.72 4.72 0 002.14-4.07c0-1.87-.65-3.14-2-3.82a33.62 33.62 0 00-6.55-2.1 19.56 19.56 0 01-6.87-2.94c-1.57-1.21-2.37-3.14-2.37-5.83a8.72 8.72 0 013.55-7.08 11.84 11.84 0 017.73-2.46 16.34 16.34 0 018.15 2.13 3.11 3.11 0 011.39 3c0 2-.26 3-.86 3-.44 0-1.18-.47-2.19-1.48a17.51 17.51 0 00-3.11-2.49 7.73 7.73 0 00-4.12-1 8 8 0 00-4.44 1.21 3.85 3.85 0 00-1.9 3.5 3.34 3.34 0 001.42 2.93 15.55 15.55 0 004.06 1.81zm19.13-22.16a3.47 3.47 0 011.1-2.64 3.82 3.82 0 012.67-1 3.7 3.7 0 012.6 1 3.28 3.28 0 011 2.43 3.59 3.59 0 01-3.85 3.88 3.32 3.32 0 01-2.55-1.07 3.8 3.8 0 01-.97-2.6zm.86 40.64c-1.48 0-2.25-.5-2.25-1.48 0-.68.42-1.12 1.19-1.45a2.65 2.65 0 001.89-1.27 7.16 7.16 0 00.48-3V67.13a24.26 24.26 0 00-.51-4.09c-.14-.5-.91-.89-2.28-1.18-1-.33-1.51-.74-1.51-1.28a1 1 0 01.45-.86 17.11 17.11 0 014.17-2.16 17.4 17.4 0 012.58-1.15c.74 0 1.22.23 1.39.74a18.32 18.32 0 01.54 2.37c.14 1.63.2 4.09.2 7.4v13.31a16.1 16.1 0 00.33 4.14c.15.39.71.74 1.6 1.07s1.39.77 1.39 1.45c0 1-.71 1.48-2.13 1.48zm19.91-40.64a3.56 3.56 0 011.07-2.64 3.82 3.82 0 012.67-1 3.7 3.7 0 012.6 1 3.35 3.35 0 011.07 2.43 4 4 0 01-1.07 2.84 3.86 3.86 0 01-2.78 1 3.39 3.39 0 01-2.58-1.07 3.77 3.77 0 01-.98-2.56zm.86 40.64c-1.51 0-2.25-.5-2.25-1.48 0-.68.39-1.12 1.16-1.45a2.67 2.67 0 001.89-1.27 6.69 6.69 0 00.48-3V67.13a25.69 25.69 0 00-.48-4.09c-.18-.5-.95-.89-2.28-1.18-1-.33-1.54-.74-1.54-1.28a1.07 1.07 0 01.44-.86 17.28 17.28 0 014.21-2.16 18 18 0 012.55-1.15c.74 0 1.21.23 1.39.74a17.08 17.08 0 01.53 2.37c.15 1.63.21 4.09.21 7.4v13.31a16.1 16.1 0 00.33 4.14c.18.39.71.74 1.6 1.07s1.42.77 1.42 1.45c0 1-.74 1.48-2.16 1.48zm24.83 0a4.34 4.34 0 01-3.38-1.37 4.64 4.64 0 01-1.24-3.23 4.71 4.71 0 011.21-3.23 4.36 4.36 0 013.41-1.39 4.29 4.29 0 013.4 1.36 5 5 0 010 6.49 4.29 4.29 0 01-3.4 1.37z"/><path class="cls-6" d="M398.88 45.36a2.53 2.53 0 00-.54-1.9 9.41 9.41 0 00-1.95-1c-.71-.17-1.07-.5-1.07-1a1 1 0 01.18-.63 1.53 1.53 0 01.5-.41c.24-.15.42-.24.62-.36 2.67-1.36 4.63-2 5.78-2s1.51 1 1.51 2.78v20.81a13.3 13.3 0 0110.64-5.24 12.31 12.31 0 017.26 2.07 12.48 12.48 0 014.38 5.6 20.53 20.53 0 011.42 7.76c0 5.07-1.39 9.13-4.15 12.24A16 16 0 01418 88a16.35 16.35 0 01-6.54 1.36c-4.51 0-7.85-1.36-10.11-4.06q-2.44-3.2-2.45-11zm5 28.94c0 3.82.53 6.61 1.63 8.27a7.78 7.78 0 006.84 3.64 8.16 8.16 0 007.38-3.88 16.22 16.22 0 002.49-9 17.83 17.83 0 00-2.13-8.89 9.66 9.66 0 00-2.82-3.28 6.17 6.17 0 00-3.85-1.37 10 10 0 00-5.36 1.75 13.77 13.77 0 00-4.18 4.18zm32.86-11.17c-.24-1.86-.74-3.08-1.49-3.61s-1.18-1.1-1.18-1.4c0-.79.56-1.18 1.75-1.18h7c1 0 1.51.36 1.51 1.07a1.88 1.88 0 01-.83 1.3 6.28 6.28 0 00-1.3 1.42 5.31 5.31 0 00-.45 2.55 29 29 0 00.86 5.92 57.43 57.43 0 001.72 6.49 18.77 18.77 0 003.32 5.6c1.39 1.57 2.66 2.34 3.85 2.34 2.16 0 3.94-2.16 5.36-6.54 1.87-5.49 2.79-9.81 2.79-13a6.48 6.48 0 00-.57-3.38 4.76 4.76 0 00-1.54-1.33 1.7 1.7 0 01-1-1.51c0-.62.47-1 1.39-1h5.92c.92 0 1.4.27 1.4.86a2.42 2.42 0 01-.12 1 9.91 9.91 0 00-1.28 3.4l-1 5.69a64.62 64.62 0 01-7.49 20.92 39.74 39.74 0 01-7.04 9.26c-2.78 2.67-5.72 4-8.86 4-2.49 0-3.76-.92-3.76-2.7a2.46 2.46 0 01.68-1.71 2.24 2.24 0 011.72-.74 9.73 9.73 0 011.81.26 9.25 9.25 0 001.8.27c2 0 4.15-1.31 6.49-3.85a20.38 20.38 0 004.56-7.08 11.89 11.89 0 01-3.11.62c-3.29 0-6.13-2.31-8.59-7a40.69 40.69 0 01-3.85-13.75z"/><g class="cls-7"><path class="cls-8" d="M464.05 61.21l-4.5.71a3 3 0 00-.45-1.37 4.59 4.59 0 00-1.57-1.33 1.71 1.71 0 01-1-1.51c0-.62.47-1 1.39-1h5.92c.92 0 1.4.27 1.4.86a2.42 2.42 0 01-.12 1 10.13 10.13 0 00-1.07 2.64zm-22.25 3.17c-1.57.2-3.2.41-4.83.59l-.29-2c-.24-1.86-.74-3.08-1.48-3.61S434 58.24 434 58c0-.8.59-1.19 1.75-1.19h7.05c1 0 1.51.36 1.51 1.07a1.79 1.79 0 01-.83 1.3 6.31 6.31 0 00-1.27 1.42 5.28 5.28 0 00-.48 2.55c.01.34.04.75.07 1.23zm-15 1.74c-1.86.21-3.76.39-5.69.6a16.18 16.18 0 00-1.09-2.43 9.37 9.37 0 00-2.81-3.29 6.08 6.08 0 00-3.82-1.36 9.79 9.79 0 00-5.39 1.74 13.88 13.88 0 00-4.21 4.18v2.73c-1.66.11-3.34.26-5 .38V45.18a2.53 2.53 0 00-.54-1.9 9.23 9.23 0 00-1.95-1c-.71-.18-1.07-.51-1.07-1a1 1 0 01.18-.62 1.67 1.67 0 01.53-.42c.21-.15.42-.24.59-.35 2.7-1.37 4.63-2 5.81-2 1 0 1.48 1 1.48 2.79v20.79a13.33 13.33 0 0110.64-5.27 11.85 11.85 0 0111.64 7.7 17.51 17.51 0 01.74 2.22zm-63.31 4.8l-5.06.24V67a23.75 23.75 0 00-.51-4.09c-.15-.5-.92-.91-2.28-1.18-1-.33-1.51-.77-1.51-1.3a1.06 1.06 0 01.45-.86 17 17 0 014.17-2.14 16 16 0 012.58-1.18c.74 0 1.21.24 1.39.74a15.12 15.12 0 01.54 2.37c.14 1.66.23 4.12.23 7.41zm-20.76.89c-1.66.06-3.35.12-5.07.15V67a23.35 23.35 0 00-.47-4.09c-.15-.5-.92-.91-2.29-1.18-1-.33-1.51-.77-1.51-1.3a1 1 0 01.45-.86 15.79 15.79 0 014.17-2.14 16 16 0 012.58-1.18c.74 0 1.22.24 1.36.74a14.45 14.45 0 01.57 2.37c.15 1.66.21 4.12.21 7.41zm-20.18.56c-5.07.12-10.22.21-15.4.27a9.82 9.82 0 01-1.69-1c-1.57-1.21-2.37-3.17-2.37-5.83a8.72 8.72 0 013.55-7.08 11.85 11.85 0 017.7-2.49 16.45 16.45 0 018.18 2.13 3.26 3.26 0 011.39 3c0 2-.29 3-.86 3s-1.18-.48-2.19-1.49a17 17 0 00-3.11-2.48 7.75 7.75 0 00-4.15-1 8.09 8.09 0 00-4.44 1.21 3.87 3.87 0 00-1.9 3.5 3.32 3.32 0 001.43 2.93 15.91 15.91 0 004 1.81l3.65.83a18.49 18.49 0 016.25 2.69zm-39.76.42h-5v-6.07a5 5 0 00-2.79-4.83c-1.09-.36-1.63-.8-1.63-1.4s.62-1.36 1.84-2.25c1.69-1.36 2.9-2 3.64-2 1.13 0 1.93.8 2.37 2.34a50.52 50.52 0 011.28 6.16 19 19 0 013.77-5.74c1.72-1.86 3.44-2.78 5.15-2.78 2.52 0 3.77 1.36 3.77 4.09 0 1.66-.51 2.46-1.51 2.46a5.14 5.14 0 01-1.93-.68 5.25 5.25 0 00-2.16-.72c-1.57 0-3.2 1.4-4.8 4.21a12.48 12.48 0 00-2 7zm-20-.15l-5-.09v-7.43a16 16 0 00-.27-3.53 2.79 2.79 0 00-1.35-1.59c-.71-.26-1.07-.68-1.07-1.15s.51-1.1 1.51-1.54a8.74 8.74 0 014.3-1.07c1.3 0 1.93 1.39 1.93 4.18zm-21.13-.41c-1.69-.06-3.37-.09-5-.15v-6.22a13.86 13.86 0 00-.45-4.3 2.73 2.73 0 00-1.6-1.6c-.8-.29-1.18-.77-1.18-1.39s.77-1.13 2.28-1.63a12.29 12.29 0 013.52-.74c1.63 0 2.46 1.24 2.46 3.76zm-25.5-.92c-3.17-.12-6.28-.27-9.37-.42 6.4-5.27 9.63-8.71 9.63-10.31 0-.47-.38-1-1.09-1.57a1.51 1.51 0 01-.86-1.3c0-.62.5-1 1.51-1h7.82c1.15 0 1.72.36 1.72 1.07s-.51 1.27-1.51 1.69a11.18 11.18 0 00-2.88 1.75c-.62.59-1.69 1.71-3.23 3.43L214.64 68l-.86.86c.83.79 1.63 1.62 2.43 2.45zm-11.65-.54l-4.94-.26v-23a11.67 11.67 0 00-.42-3.73 3 3 0 00-1.95-1.54c-.8-.39-1.19-.77-1.19-1.07 0-.45.5-.92 1.51-1.39a12.43 12.43 0 015.6-2c.92 0 1.39.86 1.39 2.58zm-28.82-1.83c-3.29-.24-6.52-.51-9.72-.77a9.78 9.78 0 01-.27-2.4 8.73 8.73 0 013.56-7.08A11.86 11.86 0 01177 56.2a16.37 16.37 0 018.15 2.13 3.2 3.2 0 011.39 3c0 2-.27 3-.86 3-.44 0-1.18-.48-2.19-1.49a17.34 17.34 0 00-3.11-2.48 7.64 7.64 0 00-4.12-1 8 8 0 00-4.44 1.21 3.85 3.85 0 00-1.9 3.5 3.36 3.36 0 001.39 2.93 15.79 15.79 0 004.09 1.81zm-28.86-2.55c-1.3-.12-2.58-.27-3.82-.41 2.67-2.55 4-4.36 4-5.4 0-.47-.36-1-1.07-1.57a1.53 1.53 0 01-.86-1.3c0-.62.51-1 1.52-1h7.82c1.15 0 1.71.36 1.71 1.07s-.5 1.27-1.51 1.69a11.28 11.28 0 00-2.87 1.75c-.62.59-1.69 1.71-3.23 3.43zm-11.73-1.27l-4.92-.63V47.55a12 12 0 00-.41-3.73 3 3 0 00-2-1.54c-.8-.39-1.18-.77-1.18-1.07 0-.45.5-.92 1.51-1.39a12.45 12.45 0 015.57-2c1 0 1.39.86 1.39 2.58zM112.25 62c-3.64-.57-7.17-1.16-10.55-1.75h3.3a6.45 6.45 0 004.54-1.39A2.19 2.19 0 01111 58c.78 0 1.19 1.37 1.25 4zm-20-3.53c-2-.41-4-.83-5.92-1.24V46c0-2-.71-3.2-2.13-3.44-1.19-.24-1.81-.77-1.81-1.6 0-1 .8-1.51 2.37-1.51h29.45c1.3.36 2.07 1.42 2.37 3.23l.56 4.09c0 .71-.36 1.06-1.1 1.06a1.39 1.39 0 01-1.15-.56c-2.4-2.93-5-4.38-7.62-4.38H96.61c-1.66 0-2.79.38-3.44 1.15a6.87 6.87 0 00-1 4.12zm243.35-11a3.46 3.46 0 011.09-2.64 3.82 3.82 0 012.67-1 3.72 3.72 0 012.61 1 3.31 3.31 0 011 2.43 3.6 3.6 0 01-3.85 3.88 3.4 3.4 0 01-2.55-1.06 3.66 3.66 0 01-1-2.53zm20.73 0a3.47 3.47 0 011.1-2.64 3.84 3.84 0 012.7-1 3.57 3.57 0 012.57 1 3.24 3.24 0 011.07 2.43 3.62 3.62 0 01-3.88 3.88 3.4 3.4 0 01-2.55-1.06 3.81 3.81 0 01-1.04-2.53z"/></g><path class="cls-9" d="M36.38 54.19h50.24v33.68H36.38V54.19z"/><path class="cls-10" d="M36.38 58.81h49.98v-.95H36.38v.95z"/><path class="cls-11" d="M36.29 60.88h49.98v-.98H36.29v.98z"/><path class="cls-12" d="M36.14 57.09h49.98v-.98H36.14v.98z"/><path class="cls-13" d="M61.09 87.57v-11.4a6.8 6.8 0 016.19-3.91c4.53 0 5.84 3.25 5.84 4.88V87.9z"/><path class="cls-14" d="M36.62 54.19l.06-4.27h4.83v2.4h2.87v-2.4h4.65v2.4h3.02l.18-2.4h4.65v2.4h3.2v-2.4h4.8v2.4h2.73v-2.4h4.65v2.4l2.87.18v-2.58h4.47v2.4h2.91v-2.4h4.29l.03 4.27H36.62z"/><path class="cls-15" d="M17.63 34.28h33.39v53.65H17.63V34.28z"/><path class="cls-16" d="M14.07 35.25v-9.33h5.54v4.86h3.5v-4.86h5.42v4.86h3.79v-4.86h5.33v4.86h3.5v-4.86h4.71v4.86h3.5v-4.86h4.83v9.33H14.07z"/><path class="cls-17" d="M17.63 41.12h33.33v-1.24H17.63v1.24z"/><path class="cls-18" d="M17.66 43.84h33.3v-1.27h-33.3v1.27z"/><path class="cls-19" d="M17.69 38.84h33.33v-1.28H17.69v1.28z"/><path class="cls-20" d="M22 55.43v-4.65a2.75 2.75 0 012.52-1.6 2.14 2.14 0 012.4 2v4.36z"/><path class="cls-21" d="M32.29 55.49v-5.16a3.07 3.07 0 012.79-1.74 2.36 2.36 0 012.66 2.19v4.86z"/><path class="cls-22" d="M43.1 55.61V51a2.82 2.82 0 012.52-1.6 2.14 2.14 0 012.4 2v4.39z"/><path class="cls-23" d="M30.9 80.52v-7.73a4.62 4.62 0 014.21-2.67c3.08 0 4 2.23 4 3.32v7.29z"/><path class="cls-24" d="M17.69 87.93h33.29v-1.28H17.69v1.28z"/><path class="cls-25" d="M3 97.59s22-19.5 61.85-13.39C126.59 93.65 16.38 79 3 97.59z"/><path id="_1-5" data-name="1" class="cls-4" d="M64.88 84l-.06.35-3.67-.47-3.59-.36-3.46-.23-3.35-.09h-3.26l-3.14.15-3.05.2-2.91.33-2.81.41-2.7.48-2.6.53-2.49.62-2.34.65-2.25.69-2.14.74-2 .77-1.93.77-1.77.77-1.66.8-1.54.77-1.43.77-1.3.74-1.18.71-1.07.68-1 .62-.79.6-.68.47-.56.44-.45.36-.32.24-.18.17h-.06l-.27-.26.13-.04.18-.15.29-.23.44-.35.56-.45.71-.5.82-.6 1-.62 1-.69 1.18-.71 1.34-.74 1.48-.77 1.57-.8L15.2 90l1.8-.8 1.9-.77 2.1-.77 2.13-.74 2.25-.68 2.37-.68 2.44-.56 2.61-.57 2.72-.47 2.82-.39 2.93-.32 3-.24 3.17-.12h3.26l3.38.09 3.46.24 3.59.35 3.7.51zm-62 13.42l.27.26-.3-.23 1.57-1.69 2.07-1.46L9 93l3-1.13 3.32-1 3.64-.83 3.91-.71 4.13-.57 4.29-.45 4.42-.38 4.5-.27 4.53-.21 4.51-.11 4.41-.06h8.44l3.92.06 3.64.06h3.35l3 .06 2.52.06h3.64l1-.06h.21-.15l-1-.26-1.75-.36-2.55-.44-3.43-.57-4.33-.68-5.3-.83.06-.35 5.3.8 4.33.71 3.43.56 2.55.45 1.78.35 1 .27.38.44-.53.24-1 .06h-6.19l-3-.06-3.32-.09-3.66-.04h-3.92L58 87.6h-4.33l-4.41.09-4.51.12-4.5.21-4.5.26-4.42.36-4.33.5-4.12.57-3.88.71-3.61.83-3.32 1-2.89 1.1-2.51 1.27-2 1.45-1.51 1.6zm.27.26l-1.28 1.15 1-1.36z"/><path class="cls-26" d="M1.13 96.64S23.11 77.17 63 83.28C124.72 92.73 14.55 78 1.13 96.64z"/><path id="_1-6" data-name="1" class="cls-5" d="M63 83.07l-.06.38-3.66-.45-3.58-.4-3.47-.21-3.35-.12h-3.26l-3.14.12-3 .23-2.9.33-2.82.39-2.76.5-2.61.56L26 85l-2.37.65-2.25.71-2.13.74-2 .74-1.89.77-1.81.8-1.66.77-1.54.8-1.42.77-1.31.74-1.18.71-1.07.65-1 .63-.84.52-.69.5-.56.5-.44.32-.33.27-.18.15-.06.06-.27-.28.09-.06.17-.18.34-.28.4-.34.6-.41.68-.51.83-.56.95-.62 1.06-.68 1.19-.72 1.33-.77 1.42-.74 1.57-.8 1.66-.8 1.81-.77 1.89-.8 2-.74 2.22-.74 2.25-.71 2.37-.65 2.49-.64 2.61-.54 2.72-.46 2.82-.41 2.93-.33 3.05-.21 3.17-.15h3.26l3.38.09 3.47.24 3.61.36 3.67.47zM1 96.52l.26.27-.26-.24 1.57-1.69 2.07-1.48 2.55-1.3 2.93-1.16 3.35-1 3.61-.83 3.92-.66 4.15-.59 4.3-.47 4.38-.37 4.51-.27 4.53-.2 4.5-.12 4.42-.09h12.35l3.64.06 3.35.09 3 .06h7.41-.18l-1-.26-1.79-.27-2.57-.47-3.42-.53-4.32-.72-5.26-.83.06-.38 5.31.83 4.32.68 3.44.56 2.55.48 1.72.38 1 .27.39.41-.54.27-1 .06h-3.64l-2.55-.06-3-.06-3.32-.06-3.64-.06H51.75l-4.42.06-4.5.12-4.51.21-4.5.27-4.41.38-4.3.47-4.11.51-3.88.71-3.61.83-3.32 1-2.87 1.07-2.49 1.3-2.05 1.43-1.48 1.63zm.26.27L0 97.88l1-1.33z"/><path class="cls-27" d="M54.57 68.52V65a2.11 2.11 0 011.93-1.22 1.62 1.62 0 011.8 1.51v3.32z"/><path class="cls-28" d="M69.18 68.4v-3.52a2.09 2.09 0 011.89-1.22 1.62 1.62 0 011.81 1.52v3.34z"/><path class="cls-29" d="M75.78 68.32v-3.53a2.12 2.12 0 011.93-1.21 1.62 1.62 0 011.8 1.51v3.31z"/><path class="cls-30" d="M61.71 68.43v-3.52a2.09 2.09 0 011.9-1.19 1.64 1.64 0 011.83 1.51v3.32z"/><path class="cls-31" d="M119.98 35.16v-9.33h-5.54v4.89h-3.46v-4.89h-5.45v4.89h-3.8v-4.89H96.4v4.89h-3.49v-4.89h-4.72v4.89h-3.46v-4.89H79.9v9.33h40.08z"/><path class="cls-32" d="M116.37 38.78h-33.3v-1.27h33.3v1.27z"/><path class="cls-33" d="M98.89 13.72V3.44c7.94-10.28 15.88 6.84 23.82-3.44v10.28c-7.94 10.28-15.88-6.84-23.82 3.44z"/><path class="cls-34" d="M98.42 3.14h1.09v28.09h-1.09V3.14z"/></g></g></g></svg>