<svg width="19" height="18" viewBox="0 0 19 18" fill="none" xmlns="http://www.w3.org/2000/svg">
<path d="M12.4968 6H18.4968V15C18.4968 15.9428 18.4968 16.4142 18.2039 16.7071C17.911 17 17.4396 17 16.4968 17H12.4968V6Z" stroke="#2F2F2F" stroke-linecap="round"/>
<path d="M0.496826 6H6.49683V17H2.49683C1.55402 17 1.08261 17 0.789719 16.7071C0.496826 16.4142 0.496826 15.9428 0.496826 15V6Z" stroke="#2F2F2F" stroke-linecap="round"/>
<rect x="6.49683" y="6" width="6" height="11" stroke="#2F2F2F" stroke-linecap="round"/>
<path d="M0.496826 3C0.496826 2.05719 0.496826 1.58579 0.789719 1.29289C1.08261 1 1.55402 1 2.49683 1H16.4968C17.4396 1 17.911 1 18.2039 1.29289C18.4968 1.58579 18.4968 2.05719 18.4968 3V6H0.496826V3Z" stroke="#2F2F2F" stroke-linecap="round"/>
</svg>
