<svg width="14" height="14" viewBox="0 0 14 14" fill="none" xmlns="http://www.w3.org/2000/svg">
<path d="M0 5.2111V14H14V5.2111H0ZM13.4523 12.4528C13.1498 12.4528 12.9046 12.7993 12.9046 13.2263C12.9046 13.2369 12.9066 13.247 12.9067 13.2573H7H1.09327C1.09344 13.247 1.09542 13.2369 1.09542 13.2263C1.09542 12.7993 0.850257 12.4528 0.547765 12.4528C0.540397 12.4528 0.533361 12.4557 0.525815 12.4557V6.75545C0.533361 6.75576 0.540397 6.75858 0.547765 6.75858C0.850257 6.75858 1.09542 6.41215 1.09542 5.98484C1.09542 5.97418 1.09344 5.96415 1.09327 5.9538H12.9067C12.9066 5.96415 12.9046 5.97418 12.9046 5.98484C12.9046 6.41215 13.1498 6.75858 13.4523 6.75858C13.4599 6.75858 13.4668 6.75576 13.4742 6.75545V12.4557C13.4668 12.4557 13.4599 12.4528 13.4523 12.4528ZM9.00012 9.625C9.00012 9.625 9.00012 11.375 7.00012 11.375C5.00012 11.375 5.00012 9.625 5.00012 9.625C5.00012 7.89476 7.00012 7.875 7.00012 7.875C7.00012 7.875 8.99949 7.89476 9.00012 9.625Z" fill="#787878"/>
<path d="M3.17077 4.46796L12.0248 1.11686C12.0265 1.12721 12.0264 1.13725 12.0283 1.14728C12.1066 1.56017 12.4069 1.80502 12.6991 1.69466C12.7062 1.69153 12.7126 1.68682 12.7197 1.68369L13.248 4.46796H13.7924L12.9447 -0.000165462L1.13916 4.46796H3.17077Z" fill="#787878"/>
</svg>
