<svg xmlns="http://www.w3.org/2000/svg" width="18" height="18" viewBox="0 0 20 20" fill="none">
<path d="M15.7794 12.7161L18.783 15.7197C19.1869 16.1236 19.1869 16.7785 18.783 17.1824C16.5993 19.3661 13.1423 19.6117 10.6717 17.7588L8.88483 16.4186C6.90723 14.9355 5.15049 13.1787 3.66729 11.2011L2.32711 9.4142C0.474199 6.94366 0.719885 3.4866 2.90356 1.30293C3.30746 0.899025 3.96231 0.899024 4.36621 1.30293L7.36984 4.30655C7.81279 4.7495 7.81279 5.46767 7.36984 5.91062L6.2116 7.06885C6.02753 7.25292 5.9819 7.53413 6.09832 7.76696C7.44428 10.4589 9.62705 12.6417 12.319 13.9876C12.5518 14.104 12.833 14.0584 13.0171 13.8743L14.1753 12.7161C14.6183 12.2732 15.3364 12.2731 15.7794 12.7161Z" stroke="#2F2F2F"/>
</svg>