<svg width="52" height="52" viewBox="0 0 52 52" fill="none" xmlns="http://www.w3.org/2000/svg">
<path d="M51.3319 26.6681C51.7009 12.6776 40.6585 1.03703 26.6681 0.66806C12.6777 0.299087 1.03706 11.3415 0.668085 25.3319C0.299112 39.3223 11.3415 50.9629 25.3319 51.3319C39.3224 51.7009 50.9629 40.6585 51.3319 26.6681Z" fill="#00AFF0"/>
<path d="M38.6745 27.998C38.7669 27.3506 38.8132 26.6571 38.8132 26.0097C38.8132 18.8887 33.0332 13.155 25.9585 13.155C25.2649 13.155 24.6175 13.2012 23.9701 13.2937C22.7679 12.5539 21.3807 12.1377 19.901 12.1377C15.6007 12.1377 12.1327 15.6057 12.1327 19.906C12.1327 21.3857 12.5489 22.8191 13.2887 23.9751C13.1962 24.6225 13.15 25.3161 13.15 25.9635C13.15 33.0844 18.93 38.8182 26.0047 38.8182C26.6983 38.8182 27.3456 38.7719 27.993 38.6795C29.1952 39.4193 30.5825 39.8355 32.0621 39.8355C36.3625 39.8355 39.8305 36.3674 39.8305 32.0671C39.8305 30.5874 39.4143 29.2003 38.6745 27.998ZM32.0621 31.8359C31.5073 32.622 30.7212 33.2231 29.6577 33.6855C28.5941 34.1479 27.3919 34.3329 25.9585 34.3329C24.2476 34.3329 22.8141 34.0555 21.7044 33.4081C20.9183 32.9919 20.2709 32.3908 19.7623 31.651C19.2537 30.9111 19.0224 30.2175 19.0224 29.5239C19.0224 29.1078 19.1612 28.7841 19.4848 28.4604C19.8085 28.183 20.1784 28.0443 20.6409 28.0443C21.0108 28.0443 21.3345 28.1367 21.6119 28.3679C21.8893 28.5991 22.1205 28.9228 22.2592 29.3852C22.4904 29.8939 22.7217 30.31 22.9529 30.6337C23.1841 30.9574 23.554 31.2348 24.0164 31.466C24.4788 31.6972 25.0799 31.7897 25.8197 31.7897C26.837 31.7897 27.6693 31.5585 28.3167 31.1423C28.9641 30.6799 29.2415 30.1713 29.2415 29.5239C29.2415 29.0153 29.0565 28.5991 28.7329 28.2755C28.4092 27.9518 27.9468 27.7206 27.3919 27.5356C26.837 27.3506 26.0972 27.1657 25.1724 26.9807C23.9239 26.7033 22.9066 26.3796 22.028 26.0097C21.1957 25.6398 20.5021 25.1311 19.9935 24.53C19.4849 23.8827 19.2536 23.0966 19.2536 22.1718C19.2536 21.2932 19.5311 20.4609 20.0397 19.7673C20.5484 19.0737 21.3345 18.5188 22.3055 18.1489C23.2765 17.779 24.4788 17.594 25.7735 17.594C26.837 17.594 27.7618 17.7327 28.5479 17.9639C29.334 18.1951 29.9813 18.5188 30.49 18.935C30.9986 19.3511 31.3685 19.7673 31.646 20.2297C31.8772 20.6921 32.0159 21.1083 32.0159 21.5707C32.0159 21.9868 31.8772 22.3567 31.5535 22.6342C31.2298 22.9579 30.8599 23.0966 30.3975 23.0966C29.9813 23.0966 29.6577 23.0041 29.4265 22.8191C29.1953 22.6342 28.9641 22.3105 28.7329 21.8943C28.4092 21.2932 28.0393 20.8308 27.6231 20.5071C27.2069 20.1835 26.5133 19.9985 25.5423 19.9985C24.6637 19.9985 23.9239 20.1835 23.369 20.5534C22.8141 20.9233 22.5829 21.3395 22.5829 21.8481C22.5829 22.1718 22.6754 22.403 22.8604 22.6342C23.0453 22.8654 23.2765 23.0503 23.6002 23.2353C23.9239 23.4203 24.2476 23.5127 24.5713 23.6052C24.8949 23.6977 25.4498 23.8364 26.2359 24.0214C27.2069 24.2526 28.0855 24.4838 28.8716 24.715C29.6577 24.9924 30.3513 25.2699 30.9061 25.6398C31.461 26.0097 31.9234 26.4721 32.2471 27.027C32.5708 27.5819 32.7095 28.2755 32.7095 29.1078C32.8945 30.1713 32.617 31.0498 32.0621 31.8359Z" fill="#F1F2F2"/>
</svg>
