<svg width="52" height="52" viewBox="0 0 52 52" fill="none" xmlns="http://www.w3.org/2000/svg">
<path d="M52 26C52 40.3594 40.3594 52 26 52C11.6406 52 0 40.3594 0 26C0 11.6406 11.6406 0 26 0C40.3594 0 52 11.6406 52 26Z" fill="#2CA5E0"/>
<path d="M31.7426 31.9389C32.5425 29.7527 35.4714 21.4387 35.9416 19.2582C36.4733 16.7927 35.3603 16.5521 32.8287 17.379C30.2971 18.2059 23.8047 20.6122 22.7119 21.0001C21.6192 21.388 16.2993 23.176 15.1963 23.7095C12.9435 24.9178 14.0394 26.7619 16.5579 27.7194C24.0852 31.3326 21.9478 29.4914 25.3084 36.177C26 37.885 27.6307 40.7941 29.1926 38.5951C30.0136 37.3444 31.1135 33.6581 31.7426 31.9389Z" fill="white"/>
</svg>
