<svg width="18" height="18" viewBox="0 0 18 18" fill="none" xmlns="http://www.w3.org/2000/svg">
<path d="M12.3739 4.89127C12.3739 7.04035 10.6318 8.78253 8.48268 8.78253C6.33359 8.78253 4.59141 7.04035 4.59141 4.89127C4.59141 2.74218 6.33359 1 8.48268 1C10.6318 1 12.3739 2.74218 12.3739 4.89127Z" fill="#F3F3F3"/>
<path d="M16 17C15.5566 15.7589 14.5796 14.6622 13.2204 13.88C11.8612 13.0978 10.1959 12.6738 8.48268 12.6738C6.76948 12.6738 5.10415 13.0978 3.74498 13.88C2.3858 14.6622 1.40874 15.7589 0.965332 17M12.3739 4.89127C12.3739 7.04035 10.6318 8.78253 8.48268 8.78253C6.33359 8.78253 4.59141 7.04035 4.59141 4.89127C4.59141 2.74218 6.33359 1 8.48268 1C10.6318 1 12.3739 2.74218 12.3739 4.89127Z" stroke="#2F2F2F" stroke-linecap="round"/>
</svg>
