<svg width="52" height="52" viewBox="0 0 52 52" fill="none" xmlns="http://www.w3.org/2000/svg">
<path d="M0 26C0 11.6241 11.6241 0 26 0C40.3759 0 52 11.6241 52 26C52 40.3759 40.3759 52 26 52C11.6241 52 0 40.3759 0 26Z" fill="#7B519D"/>
<path d="M37.4109 31.4775C36.5839 30.7883 35.6879 30.168 34.792 29.5478C33.0001 28.3072 31.415 28.2383 30.1055 30.237C29.3474 31.3396 28.3137 31.4086 27.2799 30.9261C24.3164 29.5478 21.9732 27.4802 20.6637 24.4478C20.0435 23.1384 20.0435 21.8978 21.4908 20.933C22.2489 20.4506 22.938 19.8303 22.938 18.7276C22.8691 17.2803 19.4232 12.5249 18.0448 12.0425C17.4935 11.8358 16.9421 11.8358 16.3219 12.0425C13.0827 13.1452 11.7733 15.7641 13.0827 18.8654C16.8732 28.1694 23.5583 34.6477 32.7244 38.645C33.2758 38.8518 33.8271 38.9896 34.1028 39.0585C36.1704 39.0585 38.6514 37.0599 39.3406 35.0612C40.0298 33.1315 38.5825 32.3734 37.4109 31.4775Z" fill="#F1F2F2"/>
<path d="M27.1412 12.662C33.8952 13.6958 36.9276 16.866 37.8235 23.689C37.8924 24.3092 37.6857 25.2741 38.5816 25.2741C39.5465 25.2741 39.2708 24.3782 39.2708 23.7579C39.3397 17.4174 33.7573 11.4904 27.3479 11.2837C26.8655 11.3526 25.8317 10.9391 25.7628 12.0418C25.7628 12.731 26.5898 12.5931 27.1412 12.662Z" fill="#F1F2F2"/>
<path d="M28.452 14.5236C27.8318 14.4547 26.9358 14.1101 26.798 15.0061C26.6601 15.9709 27.625 15.8331 28.1764 15.9709C32.3115 16.8669 33.7587 18.3831 34.4479 22.5182C34.5168 23.1384 34.379 24.0344 35.3439 23.8965C36.102 23.7587 35.8263 23.0006 35.8952 22.5182C35.9641 18.5898 32.5871 15.0061 28.452 14.5236Z" fill="#F1F2F2"/>
<path d="M28.8641 17.7626C28.4505 17.7626 28.037 17.8315 27.8303 18.3139C27.6235 19.0031 28.1059 19.1409 28.5884 19.2788C30.3113 19.5544 31.2073 20.5882 31.3451 22.2423C31.414 22.7247 31.6897 23.0693 32.1032 23.0003C32.7235 22.9314 32.7924 22.3801 32.7235 21.8287C32.8613 19.899 30.6559 17.6936 28.8641 17.7626Z" fill="#F1F2F2"/>
</svg>
